<svg width="131" height="95" viewBox="0 0 131 95" fill="none" xmlns="http://www.w3.org/2000/svg">
<g clip-path="url(#clip0_18_3)">
<path d="M76.3073 16.7474C78.7625 16.7474 80.7528 14.7629 80.7528 12.3148C80.7528 9.86679 78.7625 7.88226 76.3073 7.88226C73.8521 7.88226 71.8618 9.86679 71.8618 12.3148C71.8618 14.7629 73.8521 16.7474 76.3073 16.7474Z" fill="#F2F2F2"/>
<path d="M110.792 82.5317C117.4 77.5135 120.556 69.0808 118.58 61.0365C118.531 60.8366 118.479 60.6372 118.425 60.4382C117.115 55.6632 113.874 51.125 109.151 49.5993C105.185 48.3182 100.857 49.3033 96.7192 48.7939C88.5975 47.7938 82.3009 41.2415 77.8704 34.3811C73.4399 27.5207 70.0349 19.8415 64.1478 14.1738C54.4438 4.83156 38.6141 2.82017 26.5825 8.90126C14.5509 14.9824 6.88696 28.4738 7.21381 41.9197C7.54067 55.3656 15.5462 68.2208 27.1721 75.0413C31.4431 77.5469 36.3828 79.3219 41.2988 78.7008C45.5644 78.1619 49.4401 75.8765 53.6856 75.1981C60.3605 74.1314 66.9929 77.1405 72.7662 80.6471C78.5394 84.1537 84.116 88.3101 90.6766 89.9357C97.0468 91.5142 104.939 86.9771 110.792 82.5317Z" fill="#F2F2F2"/>
<path d="M101.299 9.18363C101.154 9.08734 101.007 8.99603 100.862 8.90307C96.6753 6.23294 92.1874 4.06376 87.4914 2.44033L86.4025 17.4177H79.4997V0.253994C79.0652 0.164349 78.6273 0.0796844 78.1894 0V17.4177H69.9863C65.4704 17.4177 61.1395 15.629 57.9462 12.445C54.753 9.26107 52.9591 4.94272 52.9591 0.439943C52.5195 0.534569 52.0833 0.635819 51.6471 0.743725V17.4177H44.9657L43.9285 3.13591C39.1026 4.98132 34.5212 7.40812 30.2861 10.3623C30.2128 10.4121 30.1395 10.4636 30.0679 10.5134C29.7 10.7707 29.337 11.033 28.9758 11.2986V68.4373H48.6669L48.3189 63.6313L46.4042 37.2441H84.9623L83.0477 63.6313L82.6997 68.4373H102.173V9.76134C101.883 9.56545 101.592 9.37288 101.299 9.18363ZM51.6471 32.8864H46.0879L45.0606 18.7258H51.6471V32.8864ZM78.1894 32.8864H68.8525V32.6058C68.8525 32.471 68.8258 32.3374 68.774 32.2129C68.7222 32.0883 68.6463 31.9751 68.5506 31.8798C68.4548 31.7845 68.3412 31.709 68.2162 31.6575C68.0911 31.6061 67.9572 31.5797 67.8219 31.5799H63.7628C63.6277 31.5799 63.4938 31.6064 63.369 31.6579C63.2441 31.7094 63.1307 31.785 63.0351 31.8803C62.9396 31.9756 62.8638 32.0887 62.8121 32.2132C62.7604 32.3377 62.7338 32.4711 62.7339 32.6058V32.8864H52.9591V18.7258H78.1894V32.8864ZM79.4997 32.8864V18.7258H86.3076L85.2804 32.8864H79.4997Z" fill="#3F3D56"/>
<path d="M0 72.0962C1.44637 73.805 3.01078 75.4109 4.68178 76.9022L126.318 77.0682C127.989 75.5769 129.554 73.971 131 72.2622L0 72.0962Z" fill="#3F3D56"/>
<path d="M82.4856 56.7073V70.9349C82.4857 71.1162 82.558 71.2901 82.6866 71.4183C82.8152 71.5465 82.9895 71.6186 83.1714 71.6187H104.317C104.499 71.6186 104.673 71.5465 104.802 71.4183C104.93 71.2901 105.002 71.1162 105.003 70.9349V56.7073C105.002 56.5261 104.93 56.3525 104.801 56.2245C104.673 56.0965 104.498 56.0245 104.317 56.0242H83.1714C82.9897 56.0245 82.8155 56.0965 82.687 56.2245C82.5584 56.3525 82.486 56.5261 82.4856 56.7073Z" fill="#3F3D56"/>
<path d="M82.9817 56.8843V70.7594C82.9818 70.8563 83.0205 70.9491 83.0892 71.0176C83.1579 71.0861 83.251 71.1247 83.3482 71.1249H104.141C104.238 71.1247 104.331 71.0861 104.4 71.0176C104.468 70.9491 104.507 70.8563 104.507 70.7594V56.8843C104.507 56.7873 104.469 56.6943 104.4 56.6256C104.331 56.557 104.238 56.5183 104.141 56.5181H83.3482C83.2509 56.5183 83.1577 56.557 83.089 56.6256C83.0203 56.6943 82.9817 56.7873 82.9817 56.8843Z" fill="#6C63FF"/>
<path d="M82.0434 73.7097C82.0821 73.7581 82.1313 73.7972 82.1874 73.8239C82.2434 73.8506 82.3048 73.8644 82.3669 73.864H105.009C105.071 73.864 105.132 73.8501 105.188 73.8235C105.243 73.7969 105.293 73.7583 105.332 73.7103C105.371 73.6624 105.398 73.6063 105.413 73.5463C105.428 73.4863 105.429 73.4238 105.416 73.3634L105.064 71.6988C105.05 71.6309 105.018 71.5677 104.973 71.515C104.928 71.4623 104.87 71.4218 104.805 71.397C104.758 71.3786 104.708 71.3692 104.657 71.3692H82.717C82.6664 71.3692 82.6163 71.3786 82.5692 71.397C82.5041 71.4218 82.4463 71.4623 82.401 71.515C82.3557 71.5677 82.3243 71.6309 82.3097 71.6988L81.9583 73.3634C81.9458 73.4238 81.9469 73.4862 81.9616 73.5461C81.9764 73.606 82.0043 73.6619 82.0434 73.7097Z" fill="#2F2E41"/>
<path d="M103.88 72.0862H104.415C104.46 72.0862 104.496 72.0499 104.496 72.0052V71.75C104.496 71.7053 104.46 71.669 104.415 71.669H103.88C103.835 71.669 103.799 71.7053 103.799 71.75V72.0052C103.799 72.0499 103.835 72.0862 103.88 72.0862Z" fill="#3F3D56"/>
<path d="M102.486 72.0862H103.02C103.065 72.0862 103.102 72.0499 103.102 72.0052V71.75C103.102 71.7053 103.065 71.669 103.02 71.669H102.486C102.441 71.669 102.404 71.7053 102.404 71.75V72.0052C102.404 72.0499 102.441 72.0862 102.486 72.0862Z" fill="#3F3D56"/>
<path d="M101.091 72.0862H101.626C101.671 72.0862 101.707 72.0499 101.707 72.0052V71.75C101.707 71.7053 101.671 71.669 101.626 71.669H101.091C101.046 71.669 101.01 71.7053 101.01 71.75V72.0052C101.01 72.0499 101.046 72.0862 101.091 72.0862Z" fill="#3F3D56"/>
<path d="M99.6962 72.0862H100.231C100.276 72.0862 100.312 72.0499 100.312 72.0052V71.75C100.312 71.7053 100.276 71.669 100.231 71.669H99.6962C99.6513 71.669 99.6149 71.7053 99.6149 71.75V72.0052C99.6149 72.0499 99.6513 72.0862 99.6962 72.0862Z" fill="#3F3D56"/>
<path d="M98.3015 72.0862H98.8363C98.8811 72.0862 98.9175 72.0499 98.9175 72.0052V71.75C98.9175 71.7053 98.8811 71.669 98.8363 71.669H98.3015C98.2566 71.669 98.2202 71.7053 98.2202 71.75V72.0052C98.2202 72.0499 98.2566 72.0862 98.3015 72.0862Z" fill="#3F3D56"/>
<path d="M96.9068 72.0862H97.4415C97.4864 72.0862 97.5228 72.0499 97.5228 72.0052V71.75C97.5228 71.7053 97.4864 71.669 97.4415 71.669H96.9068C96.8619 71.669 96.8255 71.7053 96.8255 71.75V72.0052C96.8255 72.0499 96.8619 72.0862 96.9068 72.0862Z" fill="#3F3D56"/>
<path d="M95.512 72.0862H96.0468C96.0917 72.0862 96.1281 72.0499 96.1281 72.0052V71.75C96.1281 71.7053 96.0917 71.669 96.0468 71.669H95.512C95.4671 71.669 95.4308 71.7053 95.4308 71.75V72.0052C95.4308 72.0499 95.4671 72.0862 95.512 72.0862Z" fill="#3F3D56"/>
<path d="M94.1173 72.0862H94.6521C94.697 72.0862 94.7334 72.0499 94.7334 72.0052V71.75C94.7334 71.7053 94.697 71.669 94.6521 71.669H94.1173C94.0724 71.669 94.036 71.7053 94.036 71.75V72.0052C94.036 72.0499 94.0724 72.0862 94.1173 72.0862Z" fill="#3F3D56"/>
<path d="M92.7226 72.0862H93.2574C93.3023 72.0862 93.3387 72.0499 93.3387 72.0052V71.75C93.3387 71.7053 93.3023 71.669 93.2574 71.669H92.7226C92.6777 71.669 92.6413 71.7053 92.6413 71.75V72.0052C92.6413 72.0499 92.6777 72.0862 92.7226 72.0862Z" fill="#3F3D56"/>
<path d="M91.3279 72.0862H91.8627C91.9076 72.0862 91.944 72.0499 91.944 72.0052V71.75C91.944 71.7053 91.9076 71.669 91.8627 71.669H91.3279C91.283 71.669 91.2466 71.7053 91.2466 71.75V72.0052C91.2466 72.0499 91.283 72.0862 91.3279 72.0862Z" fill="#3F3D56"/>
<path d="M89.9332 72.0862H90.468C90.5129 72.0862 90.5493 72.0499 90.5493 72.0052V71.75C90.5493 71.7053 90.5129 71.669 90.468 71.669H89.9332C89.8883 71.669 89.8519 71.7053 89.8519 71.75V72.0052C89.8519 72.0499 89.8883 72.0862 89.9332 72.0862Z" fill="#3F3D56"/>
<path d="M88.5385 72.0862H89.0733C89.1182 72.0862 89.1546 72.0499 89.1546 72.0052V71.75C89.1546 71.7053 89.1182 71.669 89.0733 71.669H88.5385C88.4936 71.669 88.4572 71.7053 88.4572 71.75V72.0052C88.4572 72.0499 88.4936 72.0862 88.5385 72.0862Z" fill="#3F3D56"/>
<path d="M87.1438 72.0862H87.6786C87.7235 72.0862 87.7599 72.0499 87.7599 72.0052V71.75C87.7599 71.7053 87.7235 71.669 87.6786 71.669H87.1438C87.0989 71.669 87.0625 71.7053 87.0625 71.75V72.0052C87.0625 72.0499 87.0989 72.0862 87.1438 72.0862Z" fill="#3F3D56"/>
<path d="M85.7491 72.0862H86.2839C86.3288 72.0862 86.3652 72.0499 86.3652 72.0052V71.75C86.3652 71.7053 86.3288 71.669 86.2839 71.669H85.7491C85.7042 71.669 85.6678 71.7053 85.6678 71.75V72.0052C85.6678 72.0499 85.7042 72.0862 85.7491 72.0862Z" fill="#3F3D56"/>
<path d="M84.3544 72.0862H84.8892C84.9341 72.0862 84.9704 72.0499 84.9704 72.0052V71.75C84.9704 71.7053 84.9341 71.669 84.8892 71.669H84.3544C84.3095 71.669 84.2731 71.7053 84.2731 71.75V72.0052C84.2731 72.0499 84.3095 72.0862 84.3544 72.0862Z" fill="#3F3D56"/>
<path d="M82.9597 72.0862H83.4945C83.5393 72.0862 83.5757 72.0499 83.5757 72.0052V71.75C83.5757 71.7053 83.5393 71.669 83.4945 71.669H82.9597C82.9148 71.669 82.8784 71.7053 82.8784 71.75V72.0052C82.8784 72.0499 82.9148 72.0862 82.9597 72.0862Z" fill="#3F3D56"/>
<path d="M103.897 72.7815H104.432C104.476 72.7815 104.513 72.7452 104.513 72.7005V72.4454C104.513 72.4006 104.476 72.3643 104.432 72.3643H103.897C103.852 72.3643 103.815 72.4006 103.815 72.4454V72.7005C103.815 72.7452 103.852 72.7815 103.897 72.7815Z" fill="#3F3D56"/>
<path d="M102.502 72.7815H103.037C103.082 72.7815 103.118 72.7452 103.118 72.7005V72.4454C103.118 72.4006 103.082 72.3643 103.037 72.3643H102.502C102.457 72.3643 102.421 72.4006 102.421 72.4454V72.7005C102.421 72.7452 102.457 72.7815 102.502 72.7815Z" fill="#3F3D56"/>
<path d="M101.107 72.7815H101.642C101.687 72.7815 101.723 72.7452 101.723 72.7005V72.4454C101.723 72.4006 101.687 72.3643 101.642 72.3643H101.107C101.062 72.3643 101.026 72.4006 101.026 72.4454V72.7005C101.026 72.7452 101.062 72.7815 101.107 72.7815Z" fill="#3F3D56"/>
<path d="M99.7126 72.7815H100.247C100.292 72.7815 100.329 72.7452 100.329 72.7005V72.4454C100.329 72.4006 100.292 72.3643 100.247 72.3643H99.7126C99.6678 72.3643 99.6314 72.4006 99.6314 72.4454V72.7005C99.6314 72.7452 99.6678 72.7815 99.7126 72.7815Z" fill="#3F3D56"/>
<path d="M98.3179 72.7815H98.8527C98.8976 72.7815 98.934 72.7452 98.934 72.7005V72.4454C98.934 72.4006 98.8976 72.3643 98.8527 72.3643H98.3179C98.273 72.3643 98.2366 72.4006 98.2366 72.4454V72.7005C98.2366 72.7452 98.273 72.7815 98.3179 72.7815Z" fill="#3F3D56"/>
<path d="M96.9232 72.7815H97.458C97.5029 72.7815 97.5393 72.7452 97.5393 72.7005V72.4454C97.5393 72.4006 97.5029 72.3643 97.458 72.3643H96.9232C96.8783 72.3643 96.842 72.4006 96.842 72.4454V72.7005C96.842 72.7452 96.8783 72.7815 96.9232 72.7815Z" fill="#3F3D56"/>
<path d="M95.5285 72.7815H96.0633C96.1082 72.7815 96.1446 72.7452 96.1446 72.7005V72.4454C96.1446 72.4006 96.1082 72.3643 96.0633 72.3643H95.5285C95.4836 72.3643 95.4472 72.4006 95.4472 72.4454V72.7005C95.4472 72.7452 95.4836 72.7815 95.5285 72.7815Z" fill="#3F3D56"/>
<path d="M94.1338 72.7815H94.6686C94.7135 72.7815 94.7499 72.7452 94.7499 72.7005V72.4454C94.7499 72.4006 94.7135 72.3643 94.6686 72.3643H94.1338C94.0889 72.3643 94.0525 72.4006 94.0525 72.4454V72.7005C94.0525 72.7452 94.0889 72.7815 94.1338 72.7815Z" fill="#3F3D56"/>
<path d="M92.7391 72.7815H93.2739C93.3188 72.7815 93.3552 72.7452 93.3552 72.7005V72.4454C93.3552 72.4006 93.3188 72.3643 93.2739 72.3643H92.7391C92.6942 72.3643 92.6578 72.4006 92.6578 72.4454V72.7005C92.6578 72.7452 92.6942 72.7815 92.7391 72.7815Z" fill="#3F3D56"/>
<path d="M91.3444 72.7815H91.8792C91.9241 72.7815 91.9605 72.7452 91.9605 72.7005V72.4454C91.9605 72.4006 91.9241 72.3643 91.8792 72.3643H91.3444C91.2995 72.3643 91.2631 72.4006 91.2631 72.4454V72.7005C91.2631 72.7452 91.2995 72.7815 91.3444 72.7815Z" fill="#3F3D56"/>
<path d="M89.9497 72.7815H90.4845C90.5294 72.7815 90.5658 72.7452 90.5658 72.7005V72.4454C90.5658 72.4006 90.5294 72.3643 90.4845 72.3643H89.9497C89.9048 72.3643 89.8684 72.4006 89.8684 72.4454V72.7005C89.8684 72.7452 89.9048 72.7815 89.9497 72.7815Z" fill="#3F3D56"/>
<path d="M88.555 72.7815H89.0898C89.1347 72.7815 89.1711 72.7452 89.1711 72.7005V72.4454C89.1711 72.4006 89.1347 72.3643 89.0898 72.3643H88.555C88.5101 72.3643 88.4737 72.4006 88.4737 72.4454V72.7005C88.4737 72.7452 88.5101 72.7815 88.555 72.7815Z" fill="#3F3D56"/>
<path d="M87.1603 72.7815H87.6951C87.74 72.7815 87.7763 72.7452 87.7763 72.7005V72.4454C87.7763 72.4006 87.74 72.3643 87.6951 72.3643H87.1603C87.1154 72.3643 87.079 72.4006 87.079 72.4454V72.7005C87.079 72.7452 87.1154 72.7815 87.1603 72.7815Z" fill="#3F3D56"/>
<path d="M85.7656 72.7815H86.3004C86.3452 72.7815 86.3816 72.7452 86.3816 72.7005V72.4454C86.3816 72.4006 86.3452 72.3643 86.3004 72.3643H85.7656C85.7207 72.3643 85.6843 72.4006 85.6843 72.4454V72.7005C85.6843 72.7452 85.7207 72.7815 85.7656 72.7815Z" fill="#3F3D56"/>
<path d="M84.3708 72.7815H84.9056C84.9505 72.7815 84.9869 72.7452 84.9869 72.7005V72.4454C84.9869 72.4006 84.9505 72.3643 84.9056 72.3643H84.3708C84.326 72.3643 84.2896 72.4006 84.2896 72.4454V72.7005C84.2896 72.7452 84.326 72.7815 84.3708 72.7815Z" fill="#3F3D56"/>
<path d="M82.9761 72.7815H83.5109C83.5558 72.7815 83.5922 72.7452 83.5922 72.7005V72.4454C83.5922 72.4006 83.5558 72.3643 83.5109 72.3643H82.9761C82.9313 72.3643 82.8949 72.4006 82.8949 72.4454V72.7005C82.8949 72.7452 82.9313 72.7815 82.9761 72.7815Z" fill="#3F3D56"/>
<path d="M92.3207 73.6159H97.737C97.7819 73.6159 97.8182 73.5796 97.8182 73.5349V73.2798C97.8182 73.235 97.7819 73.1987 97.737 73.1987H92.3207C92.2758 73.1987 92.2394 73.235 92.2394 73.2798V73.5349C92.2394 73.5796 92.2758 73.6159 92.3207 73.6159Z" fill="#3F3D56"/>
<path d="M86.5823 59.5536H86.1089C85.9653 59.5536 85.849 59.6696 85.849 59.8128C85.849 59.9559 85.9653 60.0719 86.1089 60.0719H86.5823C86.7259 60.0719 86.8422 59.9559 86.8422 59.8128C86.8422 59.6696 86.7259 59.5536 86.5823 59.5536Z" fill="white"/>
<path d="M91.9972 59.5536H91.5237C91.3802 59.5536 91.2638 59.6696 91.2638 59.8128C91.2638 59.9559 91.3802 60.0719 91.5237 60.0719H91.9972C92.1407 60.0719 92.2571 59.9559 92.2571 59.8128C92.2571 59.6696 92.1407 59.5536 91.9972 59.5536Z" fill="white"/>
<path d="M93.5314 59.5536H93.0579C92.9144 59.5536 92.798 59.6696 92.798 59.8128C92.798 59.9559 92.9144 60.0719 93.0579 60.0719H93.5314C93.6749 60.0719 93.7913 59.9559 93.7913 59.8128C93.7913 59.6696 93.6749 59.5536 93.5314 59.5536Z" fill="white"/>
<path d="M90.5243 59.5104H87.5817C87.4382 59.5104 87.3218 59.6264 87.3218 59.7696C87.3218 59.9127 87.4382 60.0287 87.5817 60.0287H90.5243C90.6679 60.0287 90.7842 59.9127 90.7842 59.7696C90.7842 59.6264 90.6679 59.5104 90.5243 59.5104Z" fill="white"/>
<path d="M97.7441 59.5104H94.8015C94.658 59.5104 94.5416 59.6264 94.5416 59.7696C94.5416 59.9127 94.658 60.0287 94.8015 60.0287H97.7441C97.8877 60.0287 98.004 59.9127 98.004 59.7696C98.004 59.6264 97.8877 59.5104 97.7441 59.5104Z" fill="white"/>
<path d="M88.0263 60.7234H87.5528C87.4093 60.7234 87.2929 60.8395 87.2929 60.9826C87.2929 61.1257 87.4093 61.2417 87.5528 61.2417H88.0263C88.1698 61.2417 88.2862 61.1257 88.2862 60.9826C88.2862 60.8395 88.1698 60.7234 88.0263 60.7234Z" fill="white"/>
<path d="M93.4411 60.7234H92.9677C92.8241 60.7234 92.7078 60.8395 92.7078 60.9826C92.7078 61.1257 92.8241 61.2417 92.9677 61.2417H93.4411C93.5847 61.2417 93.701 61.1257 93.701 60.9826C93.701 60.8395 93.5847 60.7234 93.4411 60.7234Z" fill="white"/>
<path d="M94.9753 60.7234H94.5019C94.3583 60.7234 94.242 60.8395 94.242 60.9826C94.242 61.1257 94.3583 61.2417 94.5019 61.2417H94.9753C95.1189 61.2417 95.2352 61.1257 95.2352 60.9826C95.2352 60.8395 95.1189 60.7234 94.9753 60.7234Z" fill="white"/>
<path d="M91.9683 60.6802H89.0257C88.8821 60.6802 88.7658 60.7963 88.7658 60.9394C88.7658 61.0825 88.8821 61.1985 89.0257 61.1985H91.9683C92.1118 61.1985 92.2282 61.0825 92.2282 60.9394C92.2282 60.7963 92.1118 60.6802 91.9683 60.6802Z" fill="white"/>
<path d="M99.1881 60.6802H96.2455C96.1019 60.6802 95.9856 60.7963 95.9856 60.9394C95.9856 61.0825 96.1019 61.1985 96.2455 61.1985H99.1881C99.3316 61.1985 99.448 61.0825 99.448 60.9394C99.448 60.7963 99.3316 60.6802 99.1881 60.6802Z" fill="white"/>
<path d="M89.4702 61.8932H88.9968C88.8532 61.8932 88.7369 62.0093 88.7369 62.1524C88.7369 62.2955 88.8532 62.4116 88.9968 62.4116H89.4702C89.6138 62.4116 89.7301 62.2955 89.7301 62.1524C89.7301 62.0093 89.6138 61.8932 89.4702 61.8932Z" fill="white"/>
<path d="M94.8851 61.8932H94.4116C94.2681 61.8932 94.1517 62.0093 94.1517 62.1524C94.1517 62.2955 94.2681 62.4116 94.4116 62.4116H94.8851C95.0286 62.4116 95.145 62.2955 95.145 62.1524C95.145 62.0093 95.0286 61.8932 94.8851 61.8932Z" fill="white"/>
<path d="M96.4193 61.8932H95.9459C95.8023 61.8932 95.6859 62.0093 95.6859 62.1524C95.6859 62.2955 95.8023 62.4116 95.9459 62.4116H96.4193C96.5629 62.4116 96.6792 62.2955 96.6792 62.1524C96.6792 62.0093 96.5629 61.8932 96.4193 61.8932Z" fill="white"/>
<path d="M93.4122 61.85H90.4696C90.3261 61.85 90.2097 61.9661 90.2097 62.1092C90.2097 62.2523 90.3261 62.3683 90.4696 62.3683H93.4122C93.5558 62.3683 93.6721 62.2523 93.6721 62.1092C93.6721 61.9661 93.5558 61.85 93.4122 61.85Z" fill="white"/>
<path d="M100.632 61.85H97.6894C97.5459 61.85 97.4295 61.9661 97.4295 62.1092C97.4295 62.2523 97.5459 62.3683 97.6894 62.3683H100.632C100.776 62.3683 100.892 62.2523 100.892 62.1092C100.892 61.9661 100.776 61.85 100.632 61.85Z" fill="white"/>
<path d="M90.9142 63.063H90.4407C90.2972 63.063 90.1808 63.1791 90.1808 63.3222C90.1808 63.4653 90.2972 63.5814 90.4407 63.5814H90.9142C91.0577 63.5814 91.1741 63.4653 91.1741 63.3222C91.1741 63.1791 91.0577 63.063 90.9142 63.063Z" fill="white"/>
<path d="M96.3291 63.063H95.8556C95.7121 63.063 95.5957 63.1791 95.5957 63.3222C95.5957 63.4653 95.7121 63.5814 95.8556 63.5814H96.3291C96.4726 63.5814 96.589 63.4653 96.589 63.3222C96.589 63.1791 96.4726 63.063 96.3291 63.063Z" fill="white"/>
<path d="M97.8632 63.063H97.3898C97.2463 63.063 97.1299 63.1791 97.1299 63.3222C97.1299 63.4653 97.2463 63.5814 97.3898 63.5814H97.8632C98.0068 63.5814 98.1232 63.4653 98.1232 63.3222C98.1232 63.1791 98.0068 63.063 97.8632 63.063Z" fill="white"/>
<path d="M94.8562 63.0198H91.9136C91.7701 63.0198 91.6537 63.1359 91.6537 63.279C91.6537 63.4221 91.7701 63.5381 91.9136 63.5381H94.8562C94.9997 63.5381 95.1161 63.4221 95.1161 63.279C95.1161 63.1359 94.9997 63.0198 94.8562 63.0198Z" fill="white"/>
<path d="M91.9972 67.7147H91.5237C91.3802 67.7147 91.2638 67.8307 91.2638 67.9738C91.2638 68.117 91.3802 68.233 91.5237 68.233H91.9972C92.1407 68.233 92.2571 68.117 92.2571 67.9738C92.2571 67.8307 92.1407 67.7147 91.9972 67.7147Z" fill="white"/>
<path d="M93.5314 67.7147H93.0579C92.9144 67.7147 92.798 67.8307 92.798 67.9738C92.798 68.117 92.9144 68.233 93.0579 68.233H93.5314C93.6749 68.233 93.7913 68.117 93.7913 67.9738C93.7913 67.8307 93.6749 67.7147 93.5314 67.7147Z" fill="white"/>
<path d="M97.7441 67.7579H94.8015C94.658 67.7579 94.5416 67.8739 94.5416 68.0171C94.5416 68.1602 94.658 68.2762 94.8015 68.2762H97.7441C97.8877 68.2762 98.004 68.1602 98.004 68.0171C98.004 67.8739 97.8877 67.7579 97.7441 67.7579Z" fill="white"/>
<path d="M86.5823 67.7147H86.1089C85.9653 67.7147 85.849 67.8307 85.849 67.9738C85.849 68.117 85.9653 68.233 86.1089 68.233H86.5823C86.7259 68.233 86.8422 68.117 86.8422 67.9738C86.8422 67.8307 86.7259 67.7147 86.5823 67.7147Z" fill="white"/>
<path d="M90.5243 67.7579H87.5817C87.4382 67.7579 87.3218 67.8739 87.3218 68.0171C87.3218 68.1602 87.4382 68.2762 87.5817 68.2762H90.5243C90.6679 68.2762 90.7842 68.1602 90.7842 68.0171C90.7842 67.8739 90.6679 67.7579 90.5243 67.7579Z" fill="white"/>
<path d="M88.0263 66.5449H87.5528C87.4093 66.5449 87.2929 66.6609 87.2929 66.804C87.2929 66.9472 87.4093 67.0632 87.5528 67.0632H88.0263C88.1698 67.0632 88.2862 66.9472 88.2862 66.804C88.2862 66.6609 88.1698 66.5449 88.0263 66.5449Z" fill="white"/>
<path d="M93.4411 66.5449H92.9677C92.8241 66.5449 92.7078 66.6609 92.7078 66.804C92.7078 66.9472 92.8241 67.0632 92.9677 67.0632H93.4411C93.5847 67.0632 93.701 66.9472 93.701 66.804C93.701 66.6609 93.5847 66.5449 93.4411 66.5449Z" fill="white"/>
<path d="M94.9753 66.5449H94.5019C94.3583 66.5449 94.242 66.6609 94.242 66.804C94.242 66.9472 94.3583 67.0632 94.5019 67.0632H94.9753C95.1189 67.0632 95.2352 66.9472 95.2352 66.804C95.2352 66.6609 95.1189 66.5449 94.9753 66.5449Z" fill="white"/>
<path d="M91.9683 66.5881H89.0257C88.8821 66.5881 88.7658 66.7041 88.7658 66.8473C88.7658 66.9904 88.8821 67.1064 89.0257 67.1064H91.9683C92.1118 67.1064 92.2282 66.9904 92.2282 66.8473C92.2282 66.7041 92.1118 66.5881 91.9683 66.5881Z" fill="white"/>
<path d="M89.4702 65.3751H88.9968C88.8532 65.3751 88.7369 65.4911 88.7369 65.6342C88.7369 65.7774 88.8532 65.8934 88.9968 65.8934H89.4702C89.6138 65.8934 89.7301 65.7774 89.7301 65.6342C89.7301 65.4911 89.6138 65.3751 89.4702 65.3751Z" fill="white"/>
<path d="M94.8851 65.3751H94.4116C94.2681 65.3751 94.1517 65.4911 94.1517 65.6342C94.1517 65.7774 94.2681 65.8934 94.4116 65.8934H94.8851C95.0286 65.8934 95.145 65.7774 95.145 65.6342C95.145 65.4911 95.0286 65.3751 94.8851 65.3751Z" fill="white"/>
<path d="M96.4193 65.3751H95.9459C95.8023 65.3751 95.6859 65.4911 95.6859 65.6342C95.6859 65.7774 95.8023 65.8934 95.9459 65.8934H96.4193C96.5629 65.8934 96.6792 65.7774 96.6792 65.6342C96.6792 65.4911 96.5629 65.3751 96.4193 65.3751Z" fill="white"/>
<path d="M93.4122 65.4183H90.4696C90.3261 65.4183 90.2097 65.5343 90.2097 65.6775C90.2097 65.8206 90.3261 65.9366 90.4696 65.9366H93.4122C93.5558 65.9366 93.6721 65.8206 93.6721 65.6775C93.6721 65.5343 93.5558 65.4183 93.4122 65.4183Z" fill="white"/>
<path d="M90.9142 64.2053H90.4407C90.2972 64.2053 90.1808 64.3213 90.1808 64.4644C90.1808 64.6075 90.2972 64.7236 90.4407 64.7236H90.9142C91.0577 64.7236 91.1741 64.6075 91.1741 64.4644C91.1741 64.3213 91.0577 64.2053 90.9142 64.2053Z" fill="white"/>
<path d="M96.3291 64.2053H95.8556C95.7121 64.2053 95.5957 64.3213 95.5957 64.4644C95.5957 64.6075 95.7121 64.7236 95.8556 64.7236H96.3291C96.4726 64.7236 96.589 64.6075 96.589 64.4644C96.589 64.3213 96.4726 64.2053 96.3291 64.2053Z" fill="white"/>
<path d="M97.8632 64.2053H97.3898C97.2463 64.2053 97.1299 64.3213 97.1299 64.4644C97.1299 64.6075 97.2463 64.7236 97.3898 64.7236H97.8632C98.0068 64.7236 98.1232 64.6075 98.1232 64.4644C98.1232 64.3213 98.0068 64.2053 97.8632 64.2053Z" fill="white"/>
<path d="M94.8562 64.2485H91.9136C91.7701 64.2485 91.6537 64.3645 91.6537 64.5076C91.6537 64.6508 91.7701 64.7668 91.9136 64.7668H94.8562C94.9997 64.7668 95.1161 64.6508 95.1161 64.5076C95.1161 64.3645 94.9997 64.2485 94.8562 64.2485Z" fill="white"/>
<path d="M84.0652 81.4244L81.8426 77.9213L88.819 72.3762L91.6985 69.1953C92.0726 68.782 92.549 68.4739 93.0799 68.3017C93.6109 68.1295 94.1778 68.0992 94.7242 68.214C95.2705 68.3287 95.7771 68.5844 96.1933 68.9555C96.6095 69.3266 96.9207 69.8002 97.0959 70.3288C97.3554 71.1121 97.2996 71.9653 96.9402 72.7084C96.5808 73.4515 95.9459 74.0263 95.1695 74.3115L90.6162 75.9841L84.0652 81.4244Z" fill="#FFB6B6"/>
<path d="M31.915 56.0249V73.0508H43.8776V56.0249C43.8778 55.9024 43.8386 55.7831 43.7658 55.6845C43.6929 55.5859 43.5903 55.5132 43.473 55.4771C43.4177 55.4588 43.3597 55.4499 43.3015 55.4505H32.4928C32.417 55.4504 32.3419 55.4651 32.2719 55.4939C32.2018 55.5227 32.1382 55.565 32.0845 55.6183C32.0309 55.6717 31.9883 55.735 31.9592 55.8048C31.9301 55.8745 31.9151 55.9493 31.915 56.0249ZM36.5835 61.8751C36.5866 61.5394 36.7225 61.2186 36.9617 60.9823C37.2008 60.7461 37.5239 60.6135 37.8605 60.6135C38.1971 60.6135 38.5202 60.7461 38.7593 60.9823C38.9985 61.2186 39.1344 61.5394 39.1375 61.8751V63.8506C39.1358 64.1871 39.0005 64.5093 38.7612 64.7467C38.5219 64.9841 38.1981 65.1174 37.8605 65.1174C37.5229 65.1174 37.1991 64.9841 36.9598 64.7467C36.7205 64.5093 36.5852 64.1871 36.5835 63.8506V61.8751Z" fill="#2F2E41"/>
<path d="M31.8784 72.5063V74.1481C31.8787 74.2332 31.9126 74.3147 31.9727 74.375C32.0329 74.4353 32.1145 74.4695 32.1997 74.4702H43.5929C43.6782 74.4697 43.76 74.4356 43.8202 74.3753C43.8804 74.3149 43.9142 74.2332 43.9142 74.1481V72.5063H31.8784Z" fill="#3F3D56"/>
<path d="M13.0963 30.3732V61.46C13.0966 61.8562 13.2546 62.236 13.5356 62.5161C13.8165 62.7963 14.1975 62.9538 14.5948 62.9541H60.7966C61.1939 62.9538 61.5748 62.7963 61.8558 62.5161C62.1367 62.236 62.2947 61.8562 62.295 61.46V30.3732C62.2941 29.9773 62.1358 29.598 61.855 29.3183C61.5741 29.0386 61.1935 28.8812 60.7966 28.8807H14.5948C14.1978 28.8812 13.8172 29.0386 13.5364 29.3183C13.2555 29.598 13.0973 29.9773 13.0963 30.3732Z" fill="#3F3D56"/>
<path d="M14.1802 30.76V61.0765C14.1806 61.2882 14.2651 61.4911 14.4152 61.6408C14.5653 61.7904 14.7688 61.8747 14.981 61.875H60.412C60.6243 61.8747 60.8277 61.7904 60.9778 61.6408C61.1279 61.4911 61.2124 61.2882 61.2128 61.0765V30.76C61.2128 30.548 61.1285 30.3448 60.9783 30.1948C60.8282 30.0448 60.6245 29.9603 60.412 29.9598H14.981C14.7685 29.9603 14.5648 30.0448 14.4147 30.1948C14.2646 30.3448 14.1802 30.548 14.1802 30.76Z" fill="white"/>
<path d="M22.6114 74.3589C22.6577 74.4167 22.7164 74.4634 22.7833 74.4953C22.8502 74.5272 22.9235 74.5436 22.9977 74.5432H50.0261C50.1001 74.5431 50.173 74.5266 50.2397 74.4948C50.3065 74.4631 50.3652 74.4169 50.4118 74.3597C50.4584 74.3024 50.4915 74.2356 50.5089 74.1639C50.5263 74.0923 50.5275 74.0177 50.5123 73.9456L50.0927 71.9584C50.0754 71.8774 50.0379 71.802 49.9838 71.7391C49.9297 71.6762 49.8607 71.6277 49.7831 71.5982C49.7268 71.5762 49.667 71.5649 49.6066 71.565H23.4156C23.3552 71.5649 23.2953 71.5762 23.2391 71.5982C23.1614 71.6277 23.0924 71.6761 23.0383 71.7391C22.9842 71.802 22.9468 71.8774 22.9294 71.9584L22.5099 73.9456C22.4949 74.0177 22.4963 74.0922 22.5139 74.1637C22.5314 74.2352 22.5648 74.3019 22.6114 74.3589Z" fill="#2F2E41"/>
<path d="M58.9376 34.136H16.428C16.3839 34.1351 16.3418 34.1169 16.3109 34.0854C16.28 34.0539 16.2627 34.0116 16.2627 33.9675C16.2627 33.9234 16.28 33.8811 16.3109 33.8496C16.3418 33.8181 16.3839 33.7999 16.428 33.7989H58.9376C58.9818 33.7999 59.0238 33.8181 59.0547 33.8496C59.0856 33.8811 59.1029 33.9234 59.1029 33.9675C59.1029 34.0116 59.0856 34.0539 59.0547 34.0854C59.0238 34.1169 58.9818 34.1351 58.9376 34.136Z" fill="#3F3D56"/>
<path d="M19.3217 32.9383C19.8689 32.9383 20.3124 32.4862 20.3124 31.9285C20.3124 31.3708 19.8689 30.9186 19.3217 30.9186C18.7746 30.9186 18.331 31.3708 18.331 31.9285C18.331 32.4862 18.7746 32.9383 19.3217 32.9383Z" fill="#3F3D56"/>
<path d="M22.7442 32.9383C23.2913 32.9383 23.7349 32.4862 23.7349 31.9285C23.7349 31.3708 23.2913 30.9186 22.7442 30.9186C22.197 30.9186 21.7535 31.3708 21.7535 31.9285C21.7535 32.4862 22.197 32.9383 22.7442 32.9383Z" fill="#3F3D56"/>
<path d="M26.1666 32.9383C26.7137 32.9383 27.1573 32.4862 27.1573 31.9285C27.1573 31.3708 26.7137 30.9186 26.1666 30.9186C25.6194 30.9186 25.1759 31.3708 25.1759 31.9285C25.1759 32.4862 25.6194 32.9383 26.1666 32.9383Z" fill="#3F3D56"/>
<path d="M56.8767 31.1684H54.4459C54.3979 31.1695 54.3522 31.1893 54.3186 31.2236C54.285 31.2579 54.2662 31.3039 54.2662 31.3518C54.2662 31.3997 54.285 31.4458 54.3186 31.48C54.3522 31.5143 54.3979 31.5341 54.4459 31.5352H56.8767C56.9251 31.5346 56.9712 31.5149 57.0052 31.4806C57.0391 31.4463 57.0581 31.4 57.0581 31.3518C57.0581 31.3036 57.0391 31.2573 57.0052 31.223C56.9712 31.1887 56.9251 31.169 56.8767 31.1684Z" fill="#3F3D56"/>
<path d="M56.8767 31.8573H54.4459C54.3978 31.8584 54.3521 31.8782 54.3184 31.9124C54.2848 31.9467 54.266 31.9928 54.266 32.0407C54.266 32.0887 54.2848 32.1348 54.3184 32.169C54.3521 32.2033 54.3978 32.2231 54.4459 32.2242H56.8767C56.9251 32.2236 56.9714 32.204 57.0054 32.1697C57.0394 32.1353 57.0585 32.089 57.0585 32.0407C57.0585 31.9925 57.0394 31.9461 57.0054 31.9118C56.9714 31.8775 56.9251 31.8579 56.8767 31.8573Z" fill="#3F3D56"/>
<path d="M56.8767 32.5462H54.4459C54.3979 32.5473 54.3522 32.5672 54.3186 32.6014C54.285 32.6357 54.2662 32.6817 54.2662 32.7297C54.2662 32.7776 54.285 32.8236 54.3186 32.8579C54.3522 32.8922 54.3979 32.912 54.4459 32.9131H56.8767C56.9251 32.9124 56.9712 32.8928 57.0052 32.8585C57.0391 32.8241 57.0581 32.7779 57.0581 32.7297C57.0581 32.6815 57.0391 32.6352 57.0052 32.6009C56.9712 32.5665 56.9251 32.5469 56.8767 32.5462Z" fill="#3F3D56"/>
<path d="M115.479 73.2268C115.552 73.4398 115.691 73.6241 115.876 73.7532C116.061 73.8824 116.282 73.9498 116.508 73.9458L120.919 73.8326C121.146 73.8282 121.366 73.7505 121.546 73.6112C121.725 73.4718 121.855 73.2783 121.915 73.0595L122.539 66.4047C122.76 66.5047 123.001 66.5541 123.244 66.5492C123.456 66.544 123.664 66.4973 123.857 66.4118C124.05 66.3263 124.224 66.2038 124.37 66.0512C124.515 65.8985 124.629 65.7188 124.705 65.5223C124.781 65.3257 124.817 65.1162 124.812 64.9056C124.807 64.6951 124.76 64.4876 124.674 64.2951C124.589 64.1026 124.466 63.9288 124.313 63.7837C124.16 63.6385 123.979 63.5249 123.782 63.4492C123.585 63.3735 123.375 63.3372 123.164 63.3425C123.067 63.3422 122.97 63.3523 122.875 63.3725C122.771 63.261 122.646 63.1724 122.506 63.1123C122.366 63.0521 122.215 63.0218 122.063 63.0234L115.279 63.1981C115.222 63.2001 115.166 63.2071 115.111 63.2188C114.962 63.2464 114.821 63.3056 114.697 63.3921C114.573 63.4787 114.469 63.5908 114.393 63.7208C114.316 63.8508 114.268 63.9957 114.252 64.1458C114.236 64.2958 114.252 64.4476 114.3 64.5908L115.479 73.2268ZM122.667 65.9528L123.111 64.367C123.162 64.1838 123.163 63.9906 123.114 63.8068C123.136 63.8067 123.155 63.7965 123.177 63.7965C123.481 63.7902 123.776 63.9046 123.996 64.1146C124.216 64.3245 124.343 64.613 124.351 64.9166C124.358 65.2202 124.244 65.5143 124.034 65.7343C123.824 65.9543 123.535 66.0823 123.23 66.0903C123.034 66.0964 122.839 66.0489 122.667 65.9528Z" fill="#2F2E41"/>
<path d="M115.111 63.2188C115.256 64.0429 116.881 64.6222 118.835 64.5215C120.632 64.4389 122.101 63.8098 122.37 63.0642C122.271 63.0348 122.167 63.021 122.063 63.0234L115.279 63.1981C115.222 63.2001 115.166 63.2071 115.111 63.2188Z" fill="#3F3D56"/>
<path d="M119.193 69.5699C119.202 69.5677 119.21 69.564 119.218 69.5589L120.176 68.9338C120.188 68.9263 120.197 68.916 120.204 68.9038C120.21 68.8917 120.214 68.8782 120.214 68.8644C120.214 68.8506 120.21 68.837 120.204 68.8249C120.197 68.8128 120.188 68.8025 120.176 68.795L119.181 68.1448C119.171 68.1387 119.161 68.1346 119.15 68.1325C119.14 68.1304 119.129 68.1305 119.118 68.1327C119.107 68.1349 119.097 68.1392 119.088 68.1453C119.079 68.1515 119.071 68.1593 119.065 68.1685C119.059 68.1776 119.055 68.1878 119.053 68.1986C119.051 68.2093 119.051 68.2203 119.053 68.231C119.055 68.2417 119.06 68.2518 119.066 68.2609C119.072 68.2699 119.08 68.2776 119.089 68.2835L119.978 68.8643L119.127 69.42C119.111 69.4308 119.098 69.447 119.093 69.4658C119.087 69.4847 119.088 69.5049 119.096 69.5229C119.104 69.5408 119.118 69.5554 119.136 69.5641C119.154 69.5727 119.174 69.5748 119.193 69.5699Z" fill="#6C63FF"/>
<path d="M117.68 69.6395C117.696 69.6355 117.711 69.6267 117.722 69.6144C117.733 69.602 117.74 69.5867 117.742 69.5703C117.744 69.5539 117.742 69.5373 117.734 69.5224C117.727 69.5076 117.716 69.4953 117.701 69.487L116.818 68.9823L117.672 68.3503C117.68 68.3438 117.688 68.3356 117.693 68.3263C117.699 68.3169 117.703 68.3066 117.704 68.2958C117.706 68.285 117.705 68.274 117.703 68.2635C117.7 68.2529 117.695 68.243 117.689 68.2342C117.682 68.2255 117.674 68.2181 117.665 68.2125C117.655 68.2069 117.645 68.2032 117.634 68.2016C117.623 68.2001 117.612 68.2006 117.602 68.2033C117.591 68.2059 117.581 68.2106 117.572 68.2171L116.617 68.9248C116.606 68.933 116.597 68.9438 116.591 68.9563C116.585 68.9688 116.583 68.9825 116.583 68.9963C116.584 69.01 116.588 69.0234 116.596 69.0351C116.603 69.0468 116.613 69.0565 116.625 69.0633L117.618 69.631C117.637 69.6418 117.659 69.6448 117.68 69.6395Z" fill="#6C63FF"/>
<path d="M119.098 70.1178C119.106 70.1158 119.114 70.1125 119.121 70.1082C119.13 70.1025 119.138 70.0951 119.145 70.0863C119.151 70.0775 119.156 70.0675 119.158 70.0569C119.161 70.0463 119.161 70.0353 119.16 70.0245C119.158 70.0137 119.154 70.0034 119.148 69.9941L117.791 67.7682C117.779 67.7494 117.761 67.736 117.739 67.7308C117.718 67.7256 117.695 67.7292 117.676 67.7406C117.657 67.7521 117.644 67.7705 117.639 67.7919C117.633 67.8132 117.637 67.8358 117.648 67.8546L119.006 70.0805C119.015 70.0957 119.029 70.1074 119.046 70.1141C119.062 70.1209 119.081 70.1221 119.098 70.1178Z" fill="#6C63FF"/>
<path d="M42.762 43.2997H35.4045C35.1044 43.2997 34.8611 43.5423 34.8611 43.8416V44.5583C34.8611 44.8576 35.1044 45.1002 35.4045 45.1002H42.762C43.0621 45.1002 43.3054 44.8576 43.3054 44.5583V43.8416C43.3054 43.5423 43.0621 43.2997 42.762 43.2997Z" fill="#6C63FF"/>
<path d="M47.0506 46.9007H31.1159C30.8158 46.9007 30.5724 47.1433 30.5724 47.4425V48.1593C30.5724 48.4585 30.8158 48.7011 31.1159 48.7011H47.0506C47.3507 48.7011 47.5941 48.4585 47.5941 48.1593V47.4425C47.5941 47.1433 47.3507 46.9007 47.0506 46.9007Z" fill="#E6E6E6"/>
<path d="M47.0506 50.5016H31.1159C30.8158 50.5016 30.5724 50.7442 30.5724 51.0435V51.7602C30.5724 52.0595 30.8158 52.3021 31.1159 52.3021H47.0506C47.3507 52.3021 47.5941 52.0595 47.5941 51.7602V51.0435C47.5941 50.7442 47.3507 50.5016 47.0506 50.5016Z" fill="#E6E6E6"/>
<path d="M48.4014 62.5598L48.4375 62.6735L48.4394 62.6773L49.5258 65.9706L50.7755 69.7657L53.1268 76.8976L53.1496 78.0055V78.0093L53.3244 86.9214L52.84 88.1296L53.3851 90.1105C53.3851 90.1105 53.1344 87.1162 51.7897 88.8358C51.0281 89.813 50.1373 90.8129 49.4061 91.7503C50.4716 92.1802 51.5542 92.569 52.6539 92.9169C52.8913 92.9926 53.1306 93.0646 53.3699 93.1365C53.4212 93.1517 53.4725 93.1668 53.5238 93.182C57.1691 94.2569 60.9377 94.8609 64.7372 94.9792C64.9348 94.9849 65.1285 94.9886 65.3165 94.9924C65.383 94.9943 65.4476 94.9962 65.5121 94.9962C65.7249 94.9981 65.9357 95 66.1484 95C66.5777 95 67.005 94.9937 67.4304 94.9811C70.5794 94.8926 73.7099 94.4704 76.7693 93.7217C76.7484 92.4623 76.6914 90.9909 76.6097 89.4191C76.5717 88.6483 75.719 87.8131 75.6677 87.0064C75.6316 86.4004 76.397 85.8303 76.3571 85.2149C76.0988 81.4254 75.7759 82.8801 75.5366 80.1966C75.5119 79.9334 75.4891 79.6815 75.4683 79.441C75.3144 77.7176 75.2081 76.6401 75.2081 76.6401L76.2299 70.2183L77.8348 60.1358L77.7113 59.9332L77.5727 59.865L69.1075 55.6873L68.6479 54.5132C68.514 54.1749 68.2816 53.8843 67.9807 53.6788C67.6798 53.4733 67.3241 53.3622 66.9594 53.3599L61.3831 53.3372C61.0937 53.3359 60.8082 53.4034 60.5502 53.5341C60.2922 53.6649 60.0692 53.8551 59.8997 54.089L58.3898 56.174L48.4014 62.5598Z" fill="#3F3D56"/>
<path d="M54.4127 75.3106L53.1496 78.0055L52.2873 79.8462L50.804 87.5899L50.0614 88.3758L49.4251 85.5936L42.7658 87.0679C42.5473 85.8578 42.7073 87.1089 42.5724 85.7813C42.6104 85.7435 42.6503 85.7056 42.6902 85.6677C42.7965 85.5692 42.8858 85.4764 42.8839 85.3874C42.8079 80.8083 43.0359 73.0154 44.939 68.2942C45.237 67.5234 45.63 66.7924 46.1089 66.1183C46.1469 66.0671 46.183 66.016 46.2191 65.9649C47.0966 64.7396 47.6512 63.5333 48.4375 62.6754V62.6735C48.4424 62.6695 48.4468 62.6651 48.4508 62.6602C48.4536 62.6588 48.4562 62.6569 48.4584 62.6545L53.8599 59.7987L54.0917 66.2906L54.2569 70.9569L54.4127 75.3106Z" fill="#3F3D56"/>
<path d="M73.8898 76.0761L75.4675 79.4419L76.0182 80.6141L77.5011 88.357L78.2413 89.141L78.879 86.3595L79.1787 86.2982L84.5828 85.1822L86.1579 90.1702C86.5129 89.5804 86.6528 88.8864 86.5538 88.2057C86.4549 87.5249 86.1232 86.8991 85.6149 86.434C85.5074 86.337 85.4177 86.2425 85.4203 86.1531C85.5099 80.7673 85.1795 70.9328 82.1957 66.8851C81.2481 65.6006 80.6795 64.3212 79.8523 63.4274C79.8497 63.4248 79.8497 63.4223 79.8471 63.4223L77.834 60.1356L77.7111 59.9338L77.5728 59.8649L73.8898 76.0761Z" fill="#3F3D56"/>
<path d="M64.3323 51.7548C68.4295 51.7548 71.7509 48.443 71.7509 44.3577C71.7509 40.2724 68.4295 36.9606 64.3323 36.9606C60.2351 36.9606 56.9137 40.2724 56.9137 44.3577C56.9137 48.443 60.2351 51.7548 64.3323 51.7548Z" fill="#FFB6B6"/>
<path d="M74.3595 39.1909C74.302 39.1296 74.2327 39.0806 74.1557 39.0466C74.0788 39.0127 73.9957 38.9946 73.9116 38.9933L74.0232 38.6846C74.0596 38.5873 74.0694 38.4821 74.0516 38.3798C74.0339 38.2776 73.9892 38.1818 73.9221 38.1024C73.855 38.023 73.7679 37.9629 73.6698 37.928C73.5718 37.8932 73.4662 37.885 73.3639 37.9043L72.9576 37.9823L72.9959 37.7118C73.0106 37.611 72.9987 37.5081 72.9614 37.4133C72.9242 37.3185 72.8628 37.235 72.7833 37.171C72.7039 37.107 72.6091 37.0647 72.5083 37.0484C72.4075 37.032 72.3041 37.0421 72.2084 37.0776C72.1213 37.1118 72.0277 37.1261 71.9343 37.1195C71.841 37.1129 71.7503 37.0855 71.6689 37.0394C71.5873 36.9947 71.5163 36.9328 71.4611 36.858C71.4059 36.7831 71.3677 36.6972 71.3493 36.6061L71.2078 35.9255L71.1928 35.889C70.5035 34.7435 69.1782 33.9101 67.5566 33.6047C66.1131 33.3308 64.633 33.4702 63.2061 33.6014C62.64 33.6545 62.0007 33.7142 61.4679 34.0396C61.0151 34.3185 60.6321 34.8763 60.7104 35.4391C59.3035 35.0091 57.7951 35.8674 57.0475 36.9498C56.1618 38.238 56.0169 39.8516 55.9936 41.1133C55.9304 44.0981 56.5481 46.5401 57.8251 48.3729C57.9183 48.5057 57.9416 48.7829 58.1264 48.8759L58.0881 48.8144C58.2946 48.9174 58.5043 49.0834 58.4261 49.261C58.2013 49.7723 59.6948 50.9028 60.747 51.2763C62.6667 51.9586 65.219 51.9005 67.0138 51.6549L67.0771 51.2315C67.7247 51.1435 68.1809 50.9759 68.3091 50.7136C68.5356 50.521 68.7287 50.3484 68.8968 50.189L68.8985 50.1873C68.9018 50.184 68.9085 50.179 68.9118 50.1757C69.7226 49.4004 69.9108 48.9589 69.9957 48.2865C70.0773 47.6275 69.9324 46.9585 69.7843 46.3558C72.9043 46.8373 68.5555 43.0423 71.4625 42.3085C71.4958 42.2983 71.5297 42.29 71.5641 42.2836C71.649 42.2637 71.7339 42.2438 71.8155 42.2206C72.2087 42.1141 72.5853 41.9538 72.9343 41.7441C73.7468 41.2511 74.0148 40.597 74.4344 39.8599C74.4949 39.755 74.5203 39.6335 74.5068 39.5132C74.4934 39.3928 74.4417 39.2799 74.3595 39.1909Z" fill="#2F2E41"/>
<path d="M90.5709 76.6027C90.5692 76.8932 90.5659 77.2999 90.5526 77.8029C90.5509 77.8727 90.5493 77.9441 90.5476 78.0171C90.5259 78.9418 90.5043 79.717 90.4693 80.5786C90.4677 80.6384 90.466 80.6965 90.4627 80.7562C90.4161 81.9582 90.3428 83.3576 90.2163 85.5738C89.9815 89.6676 89.5719 86.1366 89.1607 87.5726C89.1407 87.644 89.1191 87.7286 89.0991 87.8282C89.0368 88.1896 88.9318 88.5424 88.7861 88.8791C88.568 89.0086 88.3432 89.1331 88.1218 89.2576C87.4908 89.6079 86.8498 89.9448 86.2038 90.2653C85.8408 90.4445 85.4762 90.6205 85.1099 90.7898C85.0517 90.8164 84.9951 90.843 84.9384 90.8679C83.0628 91.7329 81.1297 92.4684 79.1528 93.0692C78.7666 93.1854 78.382 93.2982 77.9924 93.4028C77.5861 93.5157 77.1799 93.622 76.7686 93.7216C73.7094 94.4704 70.5789 94.8928 67.43 94.9816C67.0055 94.9949 66.5776 94.9998 66.1481 94.9998C65.9349 94.9998 65.7252 94.9982 65.512 94.9965C65.4471 94.9965 65.3822 94.9949 65.3173 94.9932C65.1291 94.9882 64.9343 94.9849 64.7379 94.9799C60.9383 94.8617 57.1697 94.2575 53.5246 93.182L53.3697 93.1372C53.13 93.0642 52.8919 92.9928 52.6538 92.9164C51.5549 92.5695 50.4722 92.181 49.4055 91.751C48.5914 91.424 47.7866 91.0732 46.9914 90.6985C46.9841 90.6966 46.9773 90.6932 46.9714 90.6886C46.8049 90.6122 46.6367 90.5325 46.4702 90.4512C46.4486 90.4396 46.4253 90.4279 46.402 90.4163C45.781 90.1142 45.1666 89.7977 44.5589 89.4668C44.0478 88.2964 43.3285 88.0723 42.8823 87.043C42.7525 86.7372 42.6586 86.4175 42.6026 86.0901C42.6026 86.0868 42.6009 86.0835 42.6009 86.0785C42.6476 86.6961 42.4028 84.9828 42.5993 86.0719C42.5976 86.0519 42.596 86.0304 42.5943 86.0055C42.5893 85.9457 42.5826 85.8727 42.5727 85.7813C42.0016 80.2217 42.0382 73.8636 41.7901 68.6243C41.7735 68.2857 41.7563 67.9614 41.7385 67.6515C41.7335 67.5486 41.7269 67.4473 41.7202 67.3477C41.7319 67.3178 41.7452 67.2863 41.7602 67.2564C41.7633 67.2478 41.7672 67.2395 41.7718 67.2315C41.7767 67.2212 41.7823 67.2112 41.7885 67.2016C41.7918 67.1966 41.7968 67.19 41.8001 67.185C41.8026 67.1793 41.8053 67.1738 41.8084 67.1684C41.8234 67.1452 41.8401 67.1203 41.8584 67.097C41.8667 67.0871 41.8734 67.0787 41.8817 67.0705C41.8874 67.062 41.8941 67.0542 41.9017 67.0472C41.9068 67.0392 41.9129 67.032 41.92 67.0256C41.9267 67.019 41.9333 67.0107 41.9416 67.0024C41.9452 66.9972 41.9497 66.9927 41.955 66.9891C41.9681 66.974 41.9826 66.9602 41.9982 66.9476C42.0576 66.8931 42.1211 66.8432 42.188 66.7982C42.2113 66.7833 42.2363 66.7683 42.2596 66.7517C42.4274 66.6517 42.6041 66.5672 42.7874 66.4994C42.8507 66.4762 42.914 66.4546 42.9822 66.4313C43.0072 66.4247 43.0305 66.4164 43.0555 66.4081C43.0921 66.3965 43.1287 66.3849 43.167 66.3766C43.3568 66.3201 43.5616 66.272 43.783 66.2271C43.8097 66.2222 43.838 66.2172 43.8663 66.2105C43.9062 66.2022 43.9479 66.1956 43.9895 66.189C44.0461 66.179 44.1044 66.169 44.1626 66.1591C44.6571 66.0811 45.2182 66.023 45.8376 65.9848C45.8958 65.9815 45.9541 65.9781 46.0124 65.9748C46.0807 65.9715 46.1489 65.9682 46.2188 65.9649C46.2771 65.9615 46.337 65.9599 46.397 65.9582C46.4553 65.9549 46.5152 65.9532 46.5768 65.9516C46.745 65.9466 46.9181 65.9416 47.0946 65.9383C47.5974 65.9283 48.1269 65.9316 48.6829 65.9433C48.941 65.9499 49.2041 65.9565 49.4738 65.9682C49.4921 65.9682 49.5087 65.9698 49.5254 65.9698C49.7601 65.9781 49.9966 65.9881 50.2396 66.0014C50.4095 66.0097 50.581 66.018 50.7524 66.0279C50.9139 66.0379 51.0771 66.0479 51.2419 66.0595C51.3701 66.0661 51.4983 66.0761 51.6282 66.0844C51.7381 66.0927 51.848 66.101 51.9578 66.1076L52.1077 66.1176C52.1893 66.1242 52.2709 66.1292 52.3541 66.1375C52.5372 66.1524 52.7204 66.1674 52.9069 66.1823C53.0917 66.1989 53.2798 66.2155 53.4679 66.2321C53.6561 66.2487 53.8459 66.267 54.0357 66.2852C54.0557 66.2869 54.074 66.2886 54.0923 66.2902C54.2654 66.3085 54.4386 66.3251 54.6134 66.3433C54.6534 66.3467 54.695 66.35 54.7349 66.355C54.9016 66.3717 55.0715 66.3912 55.2398 66.409C55.2914 66.4146 55.3427 66.42 55.3945 66.4256C55.5263 66.4399 55.6561 66.4523 55.7888 66.4679C55.9636 66.4878 56.1418 66.506 56.315 66.5293C56.4498 66.5442 56.5847 66.5592 56.7195 66.5758C56.931 66.6007 57.1457 66.6272 57.3605 66.6554C57.4421 66.6654 57.5237 66.6754 57.6053 66.687C58.218 66.7634 58.8373 66.848 59.4667 66.936C60.4207 67.0705 61.3897 67.2166 62.3653 67.3743C63.3426 67.532 64.3255 67.6985 65.3139 67.874C65.5636 67.9188 65.8134 67.9636 66.0648 68.0101C66.178 68.0316 66.2912 68.0532 66.4044 68.0748C66.5976 68.1097 66.7907 68.1462 66.9838 68.1827C67.177 68.2192 67.3701 68.2558 67.5632 68.2939C67.793 68.3388 68.0244 68.3836 68.2542 68.4284C69.7676 68.7272 71.2727 69.046 72.7411 69.3796C72.9826 69.4344 73.224 69.4909 73.4637 69.5457C73.9432 69.6569 74.4183 69.7698 74.8889 69.8843C75.0188 69.9142 75.147 69.9457 75.2752 69.9773C75.5948 70.057 75.9145 70.1366 76.2292 70.218L76.2841 70.2329C76.5155 70.2894 76.742 70.3475 76.9684 70.4072C77.5028 70.5467 78.0284 70.6878 78.5451 70.8306C78.8881 70.9252 79.2272 71.0209 79.5624 71.1178C80.0635 71.2622 80.5547 71.4083 81.0325 71.556C81.1507 71.5925 81.2689 71.6291 81.3855 71.6639C81.7351 71.7718 82.0797 71.8814 82.4144 71.991C82.6808 72.0773 82.9405 72.1653 83.1969 72.2533C83.4533 72.3413 83.7047 72.4292 83.9511 72.5172C84.1093 72.5737 84.2658 72.6334 84.4223 72.6899C84.6471 72.7729 84.8685 72.8559 85.0849 72.9389C85.1515 72.9638 85.2165 72.9903 85.2814 73.0152C85.323 73.0335 85.363 73.0484 85.4029 73.065C85.4812 73.0966 85.5611 73.1265 85.6377 73.158C85.716 73.1879 85.7925 73.2194 85.8691 73.2526C85.944 73.2825 86.0206 73.3141 86.0939 73.3456C86.1688 73.3755 86.2421 73.407 86.3153 73.4402C86.3769 73.4651 86.4369 73.4917 86.4951 73.5183C86.6133 73.5697 86.7316 73.6212 86.8464 73.6743C86.903 73.7009 86.9596 73.7258 87.0163 73.7523L87.1461 73.8121C87.1644 73.822 87.1827 73.8304 87.2011 73.8387C87.2427 73.8586 87.286 73.8802 87.3276 73.9001C87.4242 73.9449 87.5191 73.993 87.6123 74.0379C87.7372 74.1009 87.8587 74.164 87.9753 74.2255C88.0935 74.2885 88.2083 74.3516 88.3182 74.413C88.3365 74.423 88.3532 74.433 88.3715 74.4429C88.3965 74.4562 88.4215 74.4711 88.4464 74.4844C88.5313 74.5326 88.6129 74.5824 88.6945 74.6305C88.8543 74.7285 89.0058 74.8247 89.1474 74.921C89.179 74.9426 89.209 74.9642 89.2406 74.9841C89.3455 75.0588 89.4454 75.1319 89.5386 75.2066C89.5386 75.2082 89.5386 75.2082 89.5403 75.2082C89.5719 75.2315 89.6019 75.2564 89.6319 75.2796C89.6568 75.3028 89.6835 75.3228 89.7084 75.346C89.795 75.4207 89.8749 75.4921 89.9482 75.5651C89.9728 75.5877 89.9961 75.6115 90.0181 75.6365C90.0278 75.6445 90.0367 75.6534 90.0448 75.6631C90.0781 75.6963 90.108 75.7295 90.1363 75.7627C90.1407 75.7672 90.1446 75.7723 90.148 75.7776C90.1879 75.8241 90.2246 75.8706 90.2595 75.9171C90.2762 75.9403 90.2945 75.9636 90.3095 75.9868C90.3295 76.015 90.3494 76.0449 90.3661 76.0731C90.3811 76.0964 90.3944 76.1213 90.4077 76.1445C90.4431 76.2043 90.4731 76.2671 90.4976 76.3321C90.5163 76.3762 90.5314 76.4217 90.5426 76.4682C90.5552 76.5123 90.5647 76.5573 90.5709 76.6027Z" fill="#2F2E41"/>
<path opacity="0.2" d="M90.5709 76.6027C90.5692 76.8932 90.5659 77.3 90.5526 77.803C90.5509 77.8727 90.5476 77.9441 90.5459 78.0171C90.5293 78.7226 90.5043 79.5942 90.4693 80.5786C90.4677 80.6384 90.466 80.6965 90.4627 80.7563C90.4161 81.9582 90.3428 83.3576 90.2163 85.5738C89.9815 89.6676 89.5719 86.1366 89.1607 87.5726C88.0186 86.872 86.7665 86.1383 85.4279 85.3846C85.1865 85.2485 84.9429 85.1118 84.697 84.9746C82.0198 83.4855 79.0296 81.925 75.9079 80.3794C75.7847 80.318 75.6598 80.2566 75.5366 80.1968C68.3857 76.6724 60.5805 73.2443 54.2571 70.9567C53.0367 70.5152 51.8713 70.1167 50.7757 69.7665C48.4681 69.031 46.4736 68.5164 44.9385 68.294C43.3402 68.0615 42.2363 68.1445 41.7901 68.6243C41.7735 68.2856 41.7563 67.9614 41.7385 67.6515C41.7318 67.5486 41.7252 67.4473 41.7185 67.3477C41.7288 67.3204 41.7421 67.2943 41.7551 67.268C41.7569 67.2641 41.7582 67.2602 41.7601 67.2564C41.7633 67.2478 41.7672 67.2395 41.7718 67.2315C41.7767 67.2212 41.7823 67.2112 41.7885 67.2016C41.7939 67.1898 41.8006 67.1787 41.8084 67.1684C41.8234 67.1452 41.8401 67.1203 41.8584 67.097C41.8718 67.0796 41.8863 67.063 41.9017 67.0472C41.9068 67.0392 41.9129 67.032 41.92 67.0256C41.9266 67.019 41.9333 67.0107 41.9416 67.0024C41.9452 66.9972 41.9497 66.9927 41.9549 66.9891C41.9681 66.974 41.9826 66.9601 41.9982 66.9476C42.0576 66.8931 42.1211 66.8432 42.188 66.7982C42.2113 66.7833 42.2363 66.7683 42.2596 66.7517C42.4274 66.6516 42.6041 66.5672 42.7874 66.4994C42.8507 66.4762 42.9139 66.4546 42.9822 66.4313C43.0072 66.4247 43.0305 66.4164 43.0555 66.4081C43.0921 66.3965 43.1287 66.3848 43.167 66.3765C43.3568 66.3201 43.5616 66.272 43.783 66.2271C43.8496 66.2139 43.9196 66.2006 43.9895 66.189C44.0461 66.179 44.1044 66.169 44.1626 66.1591C44.6571 66.0811 45.2182 66.0229 45.8376 65.9848C45.8958 65.9814 45.9541 65.9781 46.0124 65.9748C46.0806 65.9715 46.1489 65.9682 46.2188 65.9648C46.2771 65.9615 46.337 65.9599 46.397 65.9582C46.4552 65.9549 46.5152 65.9532 46.5768 65.9516C46.7449 65.9466 46.9181 65.9416 47.0946 65.9383C47.5974 65.93 48.1268 65.9333 48.6829 65.9449C48.941 65.9499 49.204 65.9582 49.4738 65.9698C49.4904 65.9698 49.5087 65.9715 49.5254 65.9715C49.7601 65.9781 49.9982 65.9897 50.2396 66.0014C50.4095 66.0097 50.5809 66.018 50.7524 66.0279C50.9139 66.0379 51.0771 66.0478 51.2419 66.0595C51.3701 66.0661 51.4983 66.0761 51.6282 66.0844C51.7381 66.0927 51.8479 66.101 51.9578 66.1076C52.0894 66.1176 52.2209 66.1275 52.3541 66.1375C52.5372 66.1524 52.7204 66.1674 52.9068 66.1823C53.0917 66.1989 53.2798 66.2155 53.4679 66.2321C53.6561 66.2487 53.8459 66.267 54.0357 66.2852C54.0556 66.2869 54.074 66.2886 54.0923 66.2902C54.2654 66.3085 54.4386 66.3251 54.6134 66.3433C55.5824 66.4413 56.5797 66.5558 57.6053 66.687C58.218 66.765 58.8384 66.8486 59.4667 66.9376C60.4207 67.0721 61.3897 67.2182 62.3653 67.3743C63.3426 67.532 64.3255 67.6985 65.3139 67.8739C65.5636 67.9188 65.8134 67.9636 66.0648 68.0101C66.3711 68.0665 66.6775 68.1241 66.9838 68.1827C67.177 68.2192 67.3701 68.2558 67.5632 68.294C67.793 68.3388 68.0244 68.3836 68.2542 68.4284C69.7676 68.7272 71.2727 69.046 72.7412 69.3796C72.9826 69.4344 73.224 69.4909 73.4637 69.5457C73.9432 69.6569 74.4183 69.7698 74.8889 69.8843C75.0188 69.9159 75.147 69.9474 75.2752 69.9789C75.5965 70.0586 75.9145 70.1383 76.2292 70.218V70.2197C76.2475 70.223 76.2658 70.228 76.2841 70.2329C76.5139 70.291 76.742 70.3491 76.9684 70.4089C77.5028 70.5484 78.0284 70.6889 78.5451 70.8306C78.8881 70.9268 79.2277 71.0215 79.5624 71.1178C80.0635 71.2639 80.5547 71.4099 81.0325 71.556C81.1507 71.5925 81.2689 71.6291 81.3855 71.6639C81.7351 71.7735 82.0781 71.8825 82.4144 71.991C82.6808 72.0773 82.9405 72.1653 83.1969 72.2533C83.4533 72.3412 83.7047 72.4292 83.9511 72.5172C84.111 72.5737 84.2675 72.6318 84.4223 72.6882C84.6487 72.7712 84.8685 72.8542 85.0849 72.9389C85.1515 72.9638 85.2165 72.9904 85.2814 73.0153C85.4029 73.0617 85.5212 73.1099 85.6377 73.158C85.716 73.1879 85.7925 73.2194 85.8691 73.2526C85.944 73.2825 86.0206 73.3141 86.0939 73.3456C86.1688 73.3755 86.2421 73.407 86.3153 73.4402C86.3769 73.4651 86.4369 73.4917 86.4951 73.5183C86.6133 73.5697 86.7316 73.6212 86.8464 73.6743C86.903 73.7009 86.9597 73.7258 87.0163 73.7523L87.1461 73.8121C87.1644 73.8221 87.1828 73.8303 87.2011 73.8387C87.3426 73.9051 87.4791 73.9715 87.6123 74.0379C87.7372 74.1009 87.8587 74.164 87.9753 74.2255C88.1135 74.2985 88.245 74.3699 88.3715 74.4429C88.3965 74.4562 88.4215 74.4711 88.4464 74.4844C88.5313 74.5326 88.6129 74.5824 88.6945 74.6305C88.8543 74.7285 89.0059 74.8247 89.1474 74.921C89.2872 75.0173 89.4171 75.1119 89.5386 75.2066C89.5386 75.2082 89.5386 75.2082 89.5403 75.2082C89.5986 75.2547 89.6552 75.3012 89.7085 75.346C89.795 75.4207 89.8749 75.4921 89.9482 75.5651C89.9728 75.5877 89.9961 75.6115 90.0181 75.6365C90.0278 75.6445 90.0367 75.6534 90.0448 75.6631C90.0797 75.7013 90.1147 75.7395 90.148 75.7776C90.188 75.8241 90.2246 75.8706 90.2596 75.9171C90.2762 75.9403 90.2945 75.9636 90.3095 75.9868C90.3295 76.015 90.3495 76.0449 90.3661 76.0731C90.3811 76.0964 90.3944 76.1213 90.4077 76.1445C90.4431 76.2043 90.4731 76.2671 90.4976 76.3321C90.5159 76.3764 90.5309 76.4218 90.5426 76.4682C90.5552 76.5123 90.5647 76.5573 90.5709 76.6027Z" fill="black"/>
</g>
<defs>
<clipPath id="clip0_18_3">
<rect width="131" height="95" fill="white"/>
</clipPath>
</defs>
</svg>
