<svg width="13" height="12" viewBox="0 0 13 12" fill="none" xmlns="http://www.w3.org/2000/svg">
<path d="M8.36842 4.45847C9.20594 4.45847 10.0092 4.78679 10.6014 5.37122C11.1936 5.95565 11.5263 6.7483 11.5263 7.57481V11.2105H9.42105V7.57481C9.42105 7.29931 9.31015 7.03509 9.11274 6.84028C8.91534 6.64547 8.64759 6.53603 8.36842 6.53603C8.08924 6.53603 7.8215 6.64547 7.6241 6.84028C7.42669 7.03509 7.31579 7.29931 7.31579 7.57481V11.2105H5.21053V7.57481C5.21053 6.7483 5.54323 5.95565 6.13545 5.37122C6.72767 4.78679 7.53089 4.45847 8.36842 4.45847Z" stroke="#1A2C32" stroke-linecap="round" stroke-linejoin="round"/>
<path d="M3.10526 4.97784H1V11.2105H3.10526V4.97784Z" stroke="#1A2C32" stroke-linecap="round" stroke-linejoin="round"/>
<path d="M2.05263 3.41966C2.63398 3.41966 3.10526 2.95459 3.10526 2.38088C3.10526 1.80718 2.63398 1.3421 2.05263 1.3421C1.47128 1.3421 1 1.80718 1 2.38088C1 2.95459 1.47128 3.41966 2.05263 3.41966Z" stroke="#1A2C32" stroke-linecap="round" stroke-linejoin="round"/>
</svg>
