<svg width="14" height="12" viewBox="0 0 14 12" fill="none" xmlns="http://www.w3.org/2000/svg">
<path d="M13.2606 1.34763C12.7269 1.71912 12.136 2.00325 11.5107 2.18908C11.175 1.80824 10.729 1.5383 10.2328 1.41579C9.73663 1.29327 9.21431 1.32409 8.73647 1.50407C8.25864 1.68405 7.84834 2.00451 7.56107 2.42211C7.27381 2.83971 7.12344 3.3343 7.13029 3.83898V4.38895C6.15091 4.41401 5.18045 4.19965 4.30535 3.76498C3.43024 3.3303 2.67765 2.6888 2.1146 1.8976C2.1146 1.8976 -0.114599 6.8473 4.90109 9.04716C3.75335 9.816 2.38609 10.2015 1 10.1471C6.01569 12.8969 12.146 10.1471 12.146 3.82248C12.1455 3.66929 12.1305 3.51648 12.1014 3.36601C12.6702 2.81246 13.0716 2.11358 13.2606 1.34763Z" stroke="#1A2C32" stroke-linecap="round" stroke-linejoin="round"/>
</svg>
