<svg width="390" height="230" viewBox="0 0 390 230" fill="none" xmlns="http://www.w3.org/2000/svg">
<g opacity="0.7" clip-path="url(#clip0_19_116)">
<path d="M0 189.878L13 186.479C26 183.054 52 176.257 78 176.768C104 177.279 130 185.099 156 186.044C182 186.99 208 181.01 234 178.582C260 176.154 286 177.279 312 176.666C338 176.078 364 173.778 377 172.628L390 171.478V230.256H377C364 230.256 338 230.256 312 230.256C286 230.256 260 230.256 234 230.256C208 230.256 182 230.256 156 230.256C130 230.256 104 230.256 78 230.256C52 230.256 26 230.256 13 230.256H0V189.878Z" fill="#92CACE"/>
<path d="M0 190.644L13 189.929C26 189.188 52 187.757 78 187.961C104 188.166 130 190.057 156 193.072C182 196.088 208 200.279 234 202.86C260 205.467 286 206.489 312 206.361C338 206.233 364 204.956 377 204.317L390 203.678V230.256H377C364 230.256 338 230.256 312 230.256C286 230.256 260 230.256 234 230.256C208 230.256 182 230.256 156 230.256C130 230.256 104 230.256 78 230.256C52 230.256 26 230.256 13 230.256H0V190.644Z" fill="#669FA6"/>
<path d="M0 211.089L13 210.629C26 210.143 52 209.223 78 208.406C104 207.588 130 206.923 156 207C182 207.077 208 207.946 234 209.096C260 210.246 286 211.677 312 213.696C338 215.689 364 218.244 377 219.522L390 220.8V230.256H377C364 230.256 338 230.256 312 230.256C286 230.256 260 230.256 234 230.256C208 230.256 182 230.256 156 230.256C130 230.256 104 230.256 78 230.256C52 230.256 26 230.256 13 230.256H0V211.089Z" fill="#3B757F"/>
</g>
<defs>
<clipPath id="clip0_19_116">
<rect width="390" height="230" fill="white"/>
</clipPath>
</defs>
</svg>
