<svg width="390" height="230" viewBox="0 0 390 230" fill="none" xmlns="http://www.w3.org/2000/svg">
<g opacity="0.7" clip-path="url(#clip0_19_116)">
<path d="M0 189.878L13 186.479C26 183.054 52 176.257 78 176.768C104 177.279 130 185.099 156 186.044C182 186.99 208 181.01 234 178.582C260 176.154 286 177.279 312 176.666C338 176.078 364 173.778 377 172.628L390 171.478V230.256H377C364 230.256 338 230.256 312 230.256C286 230.256 260 230.256 234 230.256C208 230.256 182 230.256 156 230.256C130 230.256 104 230.256 78 230.256C52 230.256 26 230.256 13 230.256H0V189.878Z" fill="#92CACE"/>
<path d="M0 190.644L13 189.929C26 189.188 52 187.757 78 187.961C104 188.166 130 190.057 156 193.072C182 196.088 208 200.279 234 202.86C260 205.467 286 206.489 312 206.361C338 206.233 364 204.956 377 204.317L390 203.678V230.256H377C364 230.256 338 230.256 312 230.256C286 230.256 260 230.256 234 230.256C208 230.256 182 230.256 156 230.256C130 230.256 104 230.256 78 230.256C52 230.256 26 230.256 13 230.256H0V190.644Z" fill="#669FA6"/>
<path d="M0 211.089L13 210.629C26 210.143 52 209.223 78 208.406C104 207.588 130 206.923 156 207C182 207.077 208 207.946 234 209.096C260 210.246 286 211.677 312 213.696C338 215.689 364 218.244 377 219.522L390 220.8V230.256H377C364 230.256 338 230.256 312 230.256C286 230.256 260 230.256 234 230.256C208 230.256 182 230.256 156 230.256C130 230.256 104 230.256 78 230.256C52 230.256 26 230.256 13 230.256H0V211.089Z" fill="#3B757F"/>
<path d="M169.904 28C169.691 28 169.493 27.952 169.312 27.856C169.141 27.76 169.056 27.6213 169.056 27.44V16.848C169.056 16.6987 169.115 16.5707 169.232 16.464C169.36 16.3573 169.52 16.304 169.712 16.304H172.832C173.483 16.304 174.075 16.4213 174.608 16.656C175.141 16.88 175.563 17.2533 175.872 17.776C176.181 18.288 176.336 18.9707 176.336 19.824V19.952C176.336 20.8053 176.176 21.4933 175.856 22.016C175.547 22.5387 175.115 22.9173 174.56 23.152C174.016 23.376 173.408 23.488 172.736 23.488H170.752V27.44C170.752 27.6213 170.661 27.76 170.48 27.856C170.309 27.952 170.117 28 169.904 28ZM170.752 22.144H172.736C173.333 22.144 173.797 21.9733 174.128 21.632C174.469 21.2907 174.64 20.768 174.64 20.064V19.872C174.64 19.168 174.469 18.6507 174.128 18.32C173.797 17.9787 173.333 17.808 172.736 17.808H170.752V22.144ZM178.321 28C178.086 28 177.889 27.9413 177.729 27.824C177.58 27.7067 177.505 27.5787 177.505 27.44V20.96C177.505 20.8 177.58 20.672 177.729 20.576C177.889 20.4693 178.086 20.416 178.321 20.416C178.534 20.416 178.716 20.4693 178.865 20.576C179.014 20.672 179.089 20.8 179.089 20.96V21.664C179.206 21.44 179.361 21.2267 179.553 21.024C179.756 20.8213 179.99 20.656 180.257 20.528C180.524 20.3893 180.812 20.32 181.121 20.32H181.633C181.804 20.32 181.953 20.3947 182.081 20.544C182.209 20.6827 182.273 20.8533 182.273 21.056C182.273 21.2587 182.209 21.4347 182.081 21.584C181.953 21.7333 181.804 21.808 181.633 21.808H181.121C180.801 21.808 180.492 21.904 180.193 22.096C179.894 22.288 179.649 22.56 179.457 22.912C179.276 23.2533 179.185 23.6693 179.185 24.16V27.44C179.185 27.5787 179.1 27.7067 178.929 27.824C178.769 27.9413 178.566 28 178.321 28ZM185.981 28.128C185.405 28.128 184.867 27.9787 184.365 27.68C183.864 27.3813 183.459 26.992 183.149 26.512C182.851 26.0213 182.701 25.4987 182.701 24.944V23.472C182.701 22.9067 182.845 22.384 183.133 21.904C183.432 21.424 183.832 21.04 184.333 20.752C184.845 20.464 185.4 20.32 185.997 20.32C186.595 20.32 187.144 20.464 187.645 20.752C188.147 21.0293 188.547 21.408 188.845 21.888C189.155 22.3573 189.309 22.8853 189.309 23.472V24.944C189.309 25.488 189.155 26.0053 188.845 26.496C188.547 26.9867 188.141 27.3813 187.629 27.68C187.128 27.9787 186.579 28.128 185.981 28.128ZM185.997 26.64C186.296 26.64 186.568 26.56 186.813 26.4C187.059 26.24 187.256 26.032 187.405 25.776C187.555 25.5093 187.629 25.232 187.629 24.944V23.472C187.629 23.1947 187.555 22.928 187.405 22.672C187.256 22.416 187.059 22.208 186.813 22.048C186.568 21.888 186.296 21.808 185.997 21.808C185.688 21.808 185.411 21.888 185.165 22.048C184.931 22.208 184.739 22.416 184.589 22.672C184.451 22.928 184.381 23.1947 184.381 23.472V24.944C184.381 25.232 184.451 25.5093 184.589 25.776C184.739 26.032 184.936 26.24 185.181 26.4C185.427 26.56 185.699 26.64 185.997 26.64ZM190.147 31.6C189.816 31.6 189.592 31.5253 189.475 31.376C189.347 31.2267 189.283 31.0667 189.283 30.896C189.283 30.672 189.347 30.4907 189.475 30.352C189.603 30.224 189.757 30.16 189.939 30.16C190.184 30.16 190.365 30.0907 190.483 29.952C190.611 29.824 190.691 29.6373 190.723 29.392C190.755 29.1573 190.771 28.8853 190.771 28.576V20.96C190.771 20.8 190.845 20.672 190.995 20.576C191.155 20.4693 191.352 20.416 191.587 20.416C191.832 20.416 192.035 20.4693 192.195 20.576C192.365 20.672 192.451 20.8 192.451 20.96V28.576C192.451 29.1627 192.365 29.6853 192.195 30.144C192.035 30.6027 191.784 30.96 191.443 31.216C191.101 31.472 190.669 31.6 190.147 31.6ZM191.603 18.512C191.336 18.512 191.107 18.4213 190.915 18.24C190.723 18.0587 190.627 17.856 190.627 17.632C190.627 17.3867 190.723 17.1787 190.915 17.008C191.107 16.8373 191.336 16.752 191.603 16.752C191.869 16.752 192.093 16.8373 192.275 17.008C192.467 17.1787 192.563 17.3867 192.563 17.632C192.563 17.856 192.467 18.0587 192.275 18.24C192.093 18.4213 191.869 18.512 191.603 18.512ZM197.632 28.128C196.907 28.128 196.267 27.9947 195.712 27.728C195.157 27.4613 194.72 27.0933 194.4 26.624C194.08 26.144 193.92 25.584 193.92 24.944V23.424C193.92 22.8587 194.069 22.3413 194.368 21.872C194.677 21.4027 195.083 21.0293 195.584 20.752C196.085 20.464 196.64 20.32 197.248 20.32C197.824 20.32 198.352 20.448 198.832 20.704C199.312 20.9493 199.696 21.296 199.984 21.744C200.283 22.192 200.432 22.704 200.432 23.28C200.432 23.728 200.363 24.048 200.224 24.24C200.085 24.432 199.904 24.5493 199.68 24.592C199.456 24.6347 199.221 24.656 198.976 24.656H195.6V25.024C195.6 25.5573 195.792 25.984 196.176 26.304C196.571 26.6133 197.072 26.768 197.68 26.768C198.053 26.768 198.357 26.7147 198.592 26.608C198.827 26.5013 199.024 26.4 199.184 26.304C199.344 26.208 199.493 26.16 199.632 26.16C199.771 26.16 199.888 26.2027 199.984 26.288C200.08 26.3733 200.155 26.4747 200.208 26.592C200.261 26.7093 200.288 26.816 200.288 26.912C200.288 27.072 200.176 27.248 199.952 27.44C199.739 27.632 199.435 27.7973 199.04 27.936C198.645 28.064 198.176 28.128 197.632 28.128ZM195.6 23.616H198.256C198.491 23.616 198.645 23.584 198.72 23.52C198.805 23.456 198.848 23.328 198.848 23.136C198.848 22.8587 198.779 22.6027 198.64 22.368C198.501 22.1227 198.309 21.936 198.064 21.808C197.819 21.6693 197.541 21.6 197.232 21.6C196.933 21.6 196.661 21.664 196.416 21.792C196.171 21.92 195.973 22.096 195.824 22.32C195.675 22.544 195.6 22.8053 195.6 23.104V23.616ZM204.874 28.128C204.106 28.128 203.471 27.9893 202.97 27.712C202.479 27.4347 202.117 27.056 201.882 26.576C201.647 26.096 201.53 25.552 201.53 24.944V23.504C201.53 22.9067 201.647 22.368 201.882 21.888C202.117 21.3973 202.479 21.0133 202.97 20.736C203.461 20.4587 204.085 20.32 204.842 20.32C205.333 20.32 205.759 20.3787 206.122 20.496C206.495 20.6133 206.783 20.7627 206.986 20.944C207.199 21.1147 207.306 21.296 207.306 21.488C207.306 21.584 207.274 21.7013 207.21 21.84C207.157 21.968 207.077 22.08 206.97 22.176C206.874 22.2613 206.757 22.304 206.618 22.304C206.511 22.304 206.394 22.2613 206.266 22.176C206.149 22.0907 205.989 22.0107 205.786 21.936C205.583 21.8507 205.311 21.808 204.97 21.808C204.373 21.808 203.93 21.9573 203.642 22.256C203.354 22.5547 203.21 22.9707 203.21 23.504V24.944C203.21 25.4773 203.354 25.8933 203.642 26.192C203.93 26.4907 204.378 26.64 204.986 26.64C205.338 26.64 205.615 26.5973 205.818 26.512C206.021 26.416 206.181 26.3253 206.298 26.24C206.426 26.1547 206.549 26.112 206.666 26.112C206.815 26.112 206.943 26.1547 207.05 26.24C207.167 26.3253 207.253 26.432 207.306 26.56C207.37 26.688 207.402 26.8053 207.402 26.912C207.402 27.0933 207.29 27.28 207.066 27.472C206.853 27.664 206.554 27.824 206.17 27.952C205.797 28.0693 205.365 28.128 204.874 28.128ZM211.367 28C210.46 28 209.767 27.8027 209.287 27.408C208.807 27.0027 208.567 26.368 208.567 25.504V17.488C208.567 17.328 208.652 17.2 208.823 17.104C209.004 16.9973 209.196 16.944 209.399 16.944C209.601 16.944 209.793 16.9973 209.975 17.104C210.156 17.2 210.247 17.328 210.247 17.488V20.416H212.199C212.348 20.416 212.46 20.48 212.535 20.608C212.62 20.736 212.663 20.88 212.663 21.04C212.663 21.2 212.62 21.344 212.535 21.472C212.46 21.6 212.348 21.664 212.199 21.664H210.247V25.504C210.247 25.888 210.327 26.16 210.487 26.32C210.657 26.48 210.951 26.56 211.367 26.56H211.911C212.156 26.56 212.337 26.6347 212.455 26.784C212.583 26.9227 212.647 27.088 212.647 27.28C212.647 27.4613 212.583 27.6267 212.455 27.776C212.337 27.9253 212.156 28 211.911 28H211.367ZM216.138 28.128C215.615 28.128 215.146 28.064 214.73 27.936C214.314 27.808 213.983 27.648 213.738 27.456C213.503 27.2533 213.386 27.0507 213.386 26.848C213.386 26.752 213.407 26.6453 213.45 26.528C213.503 26.4107 213.572 26.3093 213.658 26.224C213.754 26.1387 213.855 26.096 213.962 26.096C214.1 26.096 214.244 26.16 214.394 26.288C214.554 26.4053 214.762 26.528 215.018 26.656C215.274 26.7733 215.631 26.832 216.09 26.832C216.623 26.832 216.98 26.7413 217.161 26.56C217.354 26.3787 217.45 26.1813 217.45 25.968C217.45 25.6907 217.354 25.4773 217.161 25.328C216.98 25.168 216.74 25.04 216.442 24.944C216.154 24.848 215.844 24.7573 215.514 24.672C215.183 24.576 214.868 24.4533 214.57 24.304C214.282 24.1547 214.042 23.9467 213.85 23.68C213.668 23.4133 213.578 23.0613 213.578 22.624C213.578 22.2613 213.668 21.904 213.85 21.552C214.031 21.1893 214.319 20.896 214.714 20.672C215.119 20.4373 215.658 20.32 216.33 20.32C216.735 20.32 217.119 20.3627 217.482 20.448C217.844 20.5333 218.143 20.6507 218.378 20.8C218.612 20.9387 218.73 21.0933 218.73 21.264C218.73 21.3387 218.703 21.4453 218.65 21.584C218.596 21.712 218.522 21.8293 218.426 21.936C218.34 22.032 218.228 22.08 218.09 22.08C217.983 22.08 217.85 22.0427 217.69 21.968C217.53 21.8827 217.343 21.8027 217.13 21.728C216.916 21.6533 216.655 21.616 216.346 21.616C216.036 21.616 215.786 21.6693 215.594 21.776C215.412 21.872 215.279 21.9893 215.194 22.128C215.108 22.2667 215.066 22.4053 215.066 22.544C215.066 22.7787 215.156 22.96 215.338 23.088C215.519 23.216 215.759 23.3227 216.058 23.408C216.356 23.4933 216.671 23.584 217.002 23.68C217.332 23.7653 217.642 23.8933 217.93 24.064C218.228 24.2347 218.468 24.464 218.65 24.752C218.842 25.04 218.938 25.424 218.938 25.904C218.938 26.576 218.692 27.1147 218.202 27.52C217.722 27.9253 217.034 28.128 216.138 28.128Z" fill="black"/>
<path d="M21 108L15 111.55L21 115.101" stroke="#2F2E41" stroke-linecap="round" stroke-linejoin="round"/>
<path d="M365 112.101L371 108.55L365 105" stroke="#2F2E41" stroke-linecap="round" stroke-linejoin="round"/>
</g>
<defs>
<clipPath id="clip0_19_116">
<rect width="390" height="230" fill="white"/>
</clipPath>
</defs>
</svg>
