<svg width="11" height="12" viewBox="0 0 11 12" fill="none" xmlns="http://www.w3.org/2000/svg">
<path d="M4.32909 9.80254C1.95117 10.5065 1.95117 8.62923 1 8.39457M7.65817 11.2105V9.39423C7.67601 9.17044 7.64537 8.94546 7.56829 8.73426C7.49121 8.52306 7.36946 8.33047 7.21112 8.16929C8.70446 8.00503 10.2739 7.44653 10.2739 4.88401C10.2738 4.22875 10.0183 3.59862 9.56051 3.12404C9.7773 2.55076 9.76198 1.91709 9.5177 1.35468C9.5177 1.35468 8.95652 1.19041 7.65817 2.04928C6.56814 1.75774 5.41912 1.75774 4.32909 2.04928C3.03074 1.19041 2.46955 1.35468 2.46955 1.35468C2.22528 1.91709 2.20995 2.55076 2.42675 3.12404C1.9655 3.60214 1.70982 4.23796 1.71338 4.89809C1.71338 7.44184 3.2828 8.00033 4.77613 8.18337C4.61967 8.34293 4.49899 8.53321 4.42197 8.74183C4.34495 8.95045 4.3133 9.17274 4.32909 9.39423V11.2105" stroke="#1A2C32" stroke-linecap="round" stroke-linejoin="round"/>
</svg>
