<svg width="390" height="60" viewBox="0 0 390 60" fill="none" xmlns="http://www.w3.org/2000/svg">
<path d="M0 18.8778L13 15.4789C26 12.0545 52 5.25668 78 5.76779C104 6.2789 130 14.0989 156 15.0444C182 15.99 208 10.01 234 7.58222C260 5.15445 286 6.27889 312 5.66556C338 5.07778 364 2.77778 377 1.62778L390 0.477783V59.2556H377C364 59.2556 338 59.2556 312 59.2556C286 59.2556 260 59.2556 234 59.2556C208 59.2556 182 59.2556 156 59.2556C130 59.2556 104 59.2556 78 59.2556C52 59.2556 26 59.2556 13 59.2556H0V18.8778Z" fill="#92CACE"/>
<path d="M0 19.6445L13 18.9289C26 18.1878 52 16.7567 78 16.9611C104 17.1656 130 19.0567 156 22.0722C182 25.0878 208 29.2789 234 31.86C260 34.4667 286 35.4889 312 35.3611C338 35.2333 364 33.9556 377 33.3167L390 32.6778V59.2556H377C364 59.2556 338 59.2556 312 59.2556C286 59.2556 260 59.2556 234 59.2556C208 59.2556 182 59.2556 156 59.2556C130 59.2556 104 59.2556 78 59.2556C52 59.2556 26 59.2556 13 59.2556H0V19.6445Z" fill="#669FA6"/>
<path d="M0 40.0889L13 39.6289C26 39.1433 52 38.2233 78 37.4055C104 36.5878 130 35.9233 156 36C182 36.0767 208 36.9455 234 38.0955C260 39.2455 286 40.6767 312 42.6955C338 44.6889 364 47.2444 377 48.5222L390 49.8V59.2555H377C364 59.2555 338 59.2555 312 59.2555C286 59.2555 260 59.2555 234 59.2555C208 59.2555 182 59.2555 156 59.2555C130 59.2555 104 59.2555 78 59.2555C52 59.2555 26 59.2555 13 59.2555H0V40.0889Z" fill="#3B757F"/>
</svg>
