<svg id="visual" viewBox="0 0 1440 1040" width="1440" height="1040" xmlns="http://www.w3.org/2000/svg" xmlns:xlink="http://www.w3.org/1999/xlink" version="1.1"><rect x="0" y="0" width="1440" height="1040" fill="#002233"></rect><path d="M0 781L40 782.7C80 784.3 160 787.7 240 804.7C320 821.7 400 852.3 480 876.5C560 900.7 640 918.3 720 921.3C800 924.3 880 912.7 960 898.2C1040 883.7 1120 866.3 1200 855C1280 843.7 1360 838.3 1400 835.7L1440 833L1440 1041L1400 1041C1360 1041 1280 1041 1200 1041C1120 1041 1040 1041 960 1041C880 1041 800 1041 720 1041C640 1041 560 1041 480 1041C400 1041 320 1041 240 1041C160 1041 80 1041 40 1041L0 1041Z" fill="#0066FF" stroke-linecap="round" stroke-linejoin="miter"></path></svg>