<svg width="1440" height="272" viewBox="0 0 1440 272" fill="none" xmlns="http://www.w3.org/2000/svg">
<path d="M0 0L40.3333 1.78501C80.6667 3.46501 161.333 7.03501 242 24.885C322.667 42.735 403.333 74.865 484 100.275C564.667 125.685 645.333 144.165 726 147.315C806.667 150.465 887.333 138.285 968 123.06C1048.67 107.835 1129.33 89.565 1210 77.7C1290.67 65.835 1371.33 60.165 1411.67 57.435L1452 54.6V273H1411.67C1371.33 273 1290.67 273 1210 273C1129.33 273 1048.67 273 968 273C887.333 273 806.667 273 726 273C645.333 273 564.667 273 484 273C403.333 273 322.667 273 242 273C161.333 273 80.6667 273 40.3333 273H0V0Z" fill="#0066FF"/>
</svg>
