<svg width="1440" height="273" viewBox="0 0 1440 273" fill="none" xmlns="http://www.w3.org/2000/svg">
<path d="M0 6.97306L30 4.21345C60 1.45383 120 -4.0654 180 10.2846C240 24.6346 300 58.8538 360 64.3731C420 69.8923 480 46.7115 540 36.4458C600 26.0696 660 28.7188 720 29.3811C780 30.1538 840 29.05 900 40.3092C960 51.4581 1020 75.0804 1080 82.0346C1140 88.9888 1200 79.4958 1260 65.1458C1320 50.7958 1380 31.5888 1410 22.0958L1440 12.4923V274.104H1410C1380 274.104 1320 274.104 1260 274.104C1200 274.104 1140 274.104 1080 274.104C1020 274.104 960 274.104 900 274.104C840 274.104 780 274.104 720 274.104C660 274.104 600 274.104 540 274.104C480 274.104 420 274.104 360 274.104C300 274.104 240 274.104 180 274.104C120 274.104 60 274.104 30 274.104H0V6.97306Z" fill="#00CC8E"/>
<path d="M0 68.7885L30 78.1711C60 87.5538 120 106.319 180 107.202C240 108.196 300 91.1965 360 90.6446C420 90.0927 480 105.988 540 116.033C600 126.188 660 130.604 720 130.825C780 130.935 840 126.961 900 129.169C960 131.377 1020 139.766 1080 140.759C1140 141.642 1200 135.019 1260 132.039C1320 129.169 1380 129.831 1410 130.273L1440 130.604V274.104H1410C1380 274.104 1320 274.104 1260 274.104C1200 274.104 1140 274.104 1080 274.104C1020 274.104 960 274.104 900 274.104C840 274.104 780 274.104 720 274.104C660 274.104 600 274.104 540 274.104C480 274.104 420 274.104 360 274.104C300 274.104 240 274.104 180 274.104C120 274.104 60 274.104 30 274.104H0V68.7885Z" fill="#00A784"/>
<path d="M0 206.769L30 207.321C60 207.873 120 208.977 180 210.633C240 212.288 300 214.496 360 216.152C420 217.808 480 218.912 540 211.185C600 203.458 660 186.9 720 181.712C780 176.634 840 182.816 900 178.29C960 173.654 1020 158.2 1080 162.947C1140 167.803 1200 192.75 1260 204.01C1320 215.269 1380 212.62 1410 211.405L1440 210.081V274.104H1410C1380 274.104 1320 274.104 1260 274.104C1200 274.104 1140 274.104 1080 274.104C1020 274.104 960 274.104 900 274.104C840 274.104 780 274.104 720 274.104C660 274.104 600 274.104 540 274.104C480 274.104 420 274.104 360 274.104C300 274.104 240 274.104 180 274.104C120 274.104 60 274.104 30 274.104H0V206.769Z" fill="#038373"/>
</svg>
