<svg id="visual" viewBox="0 0 1440 1040" width="1440" height="1040" xmlns="http://www.w3.org/2000/svg" xmlns:xlink="http://www.w3.org/1999/xlink" version="1.1"><rect x="0" y="0" width="1440" height="1040" fill="#002233"></rect><path d="M0 799L30 796.5C60 794 120 789 180 802C240 815 300 846 360 851C420 856 480 835 540 825.7C600 816.3 660 818.7 720 819.3C780 820 840 819 900 829.2C960 839.3 1020 860.7 1080 867C1140 873.3 1200 864.7 1260 851.7C1320 838.7 1380 821.3 1410 812.7L1440 804L1440 1041L1410 1041C1380 1041 1320 1041 1260 1041C1200 1041 1140 1041 1080 1041C1020 1041 960 1041 900 1041C840 1041 780 1041 720 1041C660 1041 600 1041 540 1041C480 1041 420 1041 360 1041C300 1041 240 1041 180 1041C120 1041 60 1041 30 1041L0 1041Z" fill="#00cc8e"></path><path d="M0 855L30 863.5C60 872 120 889 180 889.8C240 890.7 300 875.3 360 874.8C420 874.3 480 888.7 540 897.8C600 907 660 911 720 911.2C780 911.3 840 907.7 900 909.7C960 911.7 1020 919.3 1080 920.2C1140 921 1200 915 1260 912.3C1320 909.7 1380 910.3 1410 910.7L1440 911L1440 1041L1410 1041C1380 1041 1320 1041 1260 1041C1200 1041 1140 1041 1080 1041C1020 1041 960 1041 900 1041C840 1041 780 1041 720 1041C660 1041 600 1041 540 1041C480 1041 420 1041 360 1041C300 1041 240 1041 180 1041C120 1041 60 1041 30 1041L0 1041Z" fill="#00a784"></path><path d="M0 980L30 980.5C60 981 120 982 180 983.5C240 985 300 987 360 988.5C420 990 480 991 540 984C600 977 660 962 720 957.3C780 952.7 840 958.3 900 954.2C960 950 1020 936 1080 940.3C1140 944.7 1200 967.3 1260 977.5C1320 987.7 1380 985.3 1410 984.2L1440 983L1440 1041L1410 1041C1380 1041 1320 1041 1260 1041C1200 1041 1140 1041 1080 1041C1020 1041 960 1041 900 1041C840 1041 780 1041 720 1041C660 1041 600 1041 540 1041C480 1041 420 1041 360 1041C300 1041 240 1041 180 1041C120 1041 60 1041 30 1041L0 1041Z" fill="#038373"></path></svg>