<svg id="visual" viewBox="0 0 1440 1040" width="1440" height="1040" xmlns="http://www.w3.org/2000/svg" xmlns:xlink="http://www.w3.org/1999/xlink" version="1.1"><rect x="0" y="0" width="1440" height="1040" fill="#002233"></rect><path d="M0 772L60 787.3C120 802.7 240 833.3 360 832.7C480 832 600 800 720 786.5C840 773 960 778 1080 793C1200 808 1320 833 1380 845.5L1440 858L1440 1041L1380 1041C1320 1041 1200 1041 1080 1041C960 1041 840 1041 720 1041C600 1041 480 1041 360 1041C240 1041 120 1041 60 1041L0 1041Z" fill="#fa7268"></path><path d="M0 933L60 925.2C120 917.3 240 901.7 360 892C480 882.3 600 878.7 720 885.2C840 891.7 960 908.3 1080 905.3C1200 902.3 1320 879.7 1380 868.3L1440 857L1440 1041L1380 1041C1320 1041 1200 1041 1080 1041C960 1041 840 1041 720 1041C600 1041 480 1041 360 1041C240 1041 120 1041 60 1041L0 1041Z" fill="#e34c67"></path><path d="M0 951L60 956.5C120 962 240 973 360 976.2C480 979.3 600 974.7 720 962C840 949.3 960 928.7 1080 934.3C1200 940 1320 972 1380 988L1440 1004L1440 1041L1380 1041C1320 1041 1200 1041 1080 1041C960 1041 840 1041 720 1041C600 1041 480 1041 360 1041C240 1041 120 1041 60 1041L0 1041Z" fill="#c62368"></path></svg>