<svg width="1440" height="251" viewBox="0 0 1440 251" fill="none" xmlns="http://www.w3.org/2000/svg">
<path d="M0 0.123047L60 15.1877C120 30.3507 240 60.48 360 59.8892C480 59.2 600 27.6923 720 14.4C840 1.10766 960 6.03074 1080 20.8C1200 35.5692 1320 60.1846 1380 72.4923L1440 84.8V264.985H1380C1320 264.985 1200 264.985 1080 264.985C960 264.985 840 264.985 720 264.985C600 264.985 480 264.985 360 264.985C240 264.985 120 264.985 60 264.985H0V0.123047Z" fill="#FA7268"/>
<path d="M0 158.646L60 150.966C120 143.188 240 127.828 360 118.277C480 108.726 600 105.182 720 111.582C840 117.982 960 134.326 1080 131.372C1200 128.418 1320 106.166 1380 94.9415L1440 83.8154V264.985H1380C1320 264.985 1200 264.985 1080 264.985C960 264.985 840 264.985 720 264.985C600 264.985 480 264.985 360 264.985C240 264.985 120 264.985 60 264.985H0V158.646Z" fill="#E34C67"/>
<path d="M0 176.369L60 181.785C120 187.2 240 198.031 360 201.182C480 204.234 600 199.705 720 187.2C840 174.695 960 154.412 1080 159.926C1200 165.538 1320 197.046 1380 212.8L1440 228.554V264.985H1380C1320 264.985 1200 264.985 1080 264.985C960 264.985 840 264.985 720 264.985C600 264.985 480 264.985 360 264.985C240 264.985 120 264.985 60 264.985H0V176.369Z" fill="#C62368"/>
</svg>
