<svg width="72" height="72" viewBox="0 0 72 72" fill="none" xmlns="http://www.w3.org/2000/svg">
<path d="M69 9C66.1272 11.0264 62.9463 12.5763 59.58 13.59C57.7732 11.5125 55.372 10.0401 52.7011 9.37178C50.0302 8.70348 47.2185 8.87159 44.6462 9.85336C42.074 10.8351 39.8653 12.5832 38.3189 14.8612C36.7726 17.1391 35.9631 19.837 36 22.59V25.59C30.7279 25.7267 25.5038 24.5574 20.793 22.1863C16.0822 19.8152 12.031 16.3159 9 12C9 12 -3 39 24 51C17.8216 55.1939 10.4615 57.2968 3 57C30 72 63 57 63 22.5C62.9972 21.6644 62.9169 20.8308 62.76 20.01C65.8218 16.9905 67.9825 13.1781 69 9Z" stroke="white" stroke-width="2" stroke-linecap="round" stroke-linejoin="round"/>
</svg>
